G04 #@! TF.GenerationSoftware,KiCad,Pcbnew,6.0.2+dfsg-1*
G04 #@! TF.CreationDate,2024-02-20T11:24:05-07:00*
G04 #@! TF.ProjectId,battery_load_tester,62617474-6572-4795-9f6c-6f61645f7465,rev?*
G04 #@! TF.SameCoordinates,Original*
G04 #@! TF.FileFunction,Copper,L1,Top*
G04 #@! TF.FilePolarity,Positive*
%FSLAX46Y46*%
G04 Gerber Fmt 4.6, Leading zero omitted, Abs format (unit mm)*
G04 Created by KiCad (PCBNEW 6.0.2+dfsg-1) date 2024-02-20 11:24:05*
%MOMM*%
%LPD*%
G01*
G04 APERTURE LIST*
G04 Aperture macros list*
%AMRoundRect*
0 Rectangle with rounded corners*
0 $1 Rounding radius*
0 $2 $3 $4 $5 $6 $7 $8 $9 X,Y pos of 4 corners*
0 Add a 4 corners polygon primitive as box body*
4,1,4,$2,$3,$4,$5,$6,$7,$8,$9,$2,$3,0*
0 Add four circle primitives for the rounded corners*
1,1,$1+$1,$2,$3*
1,1,$1+$1,$4,$5*
1,1,$1+$1,$6,$7*
1,1,$1+$1,$8,$9*
0 Add four rect primitives between the rounded corners*
20,1,$1+$1,$2,$3,$4,$5,0*
20,1,$1+$1,$4,$5,$6,$7,0*
20,1,$1+$1,$6,$7,$8,$9,0*
20,1,$1+$1,$8,$9,$2,$3,0*%
G04 Aperture macros list end*
G04 #@! TA.AperFunction,SMDPad,CuDef*
%ADD10R,1.498600X0.812800*%
G04 #@! TD*
G04 #@! TA.AperFunction,SMDPad,CuDef*
%ADD11R,1.905000X1.397000*%
G04 #@! TD*
G04 #@! TA.AperFunction,SMDPad,CuDef*
%ADD12R,1.397000X1.803400*%
G04 #@! TD*
G04 #@! TA.AperFunction,SMDPad,CuDef*
%ADD13RoundRect,0.250000X0.250000X0.475000X-0.250000X0.475000X-0.250000X-0.475000X0.250000X-0.475000X0*%
G04 #@! TD*
G04 #@! TA.AperFunction,SMDPad,CuDef*
%ADD14RoundRect,0.250000X0.450000X-0.262500X0.450000X0.262500X-0.450000X0.262500X-0.450000X-0.262500X0*%
G04 #@! TD*
G04 #@! TA.AperFunction,ComponentPad*
%ADD15C,1.707896*%
G04 #@! TD*
G04 #@! TA.AperFunction,ComponentPad*
%ADD16R,1.600000X1.600000*%
G04 #@! TD*
G04 #@! TA.AperFunction,ComponentPad*
%ADD17O,1.600000X1.600000*%
G04 #@! TD*
G04 #@! TA.AperFunction,ViaPad*
%ADD18C,0.800000*%
G04 #@! TD*
G04 #@! TA.AperFunction,Conductor*
%ADD19C,0.250000*%
G04 #@! TD*
G04 APERTURE END LIST*
D10*
X117396227Y-89402028D03*
X117802627Y-88309828D03*
X117396227Y-87217628D03*
X117193027Y-86125428D03*
X117396227Y-85033228D03*
X117193027Y-83941028D03*
X117396227Y-82848828D03*
X117396227Y-81756628D03*
D11*
X113847400Y-94322900D03*
X114568717Y-81079258D03*
D12*
X128033300Y-88404700D03*
X128033300Y-82689700D03*
D13*
X116144000Y-78232000D03*
X118044000Y-78232000D03*
D14*
X161798000Y-82954500D03*
X161798000Y-81129500D03*
D15*
X165134900Y-95986601D03*
X172134901Y-95986601D03*
X165134900Y-90906601D03*
X172134901Y-90906601D03*
X165134900Y-84556601D03*
X172134901Y-84556601D03*
X165134900Y-79476601D03*
X172134901Y-79476601D03*
D16*
X139446000Y-106680000D03*
D17*
X141986000Y-106680000D03*
X144526000Y-106680000D03*
X147066000Y-106680000D03*
X149606000Y-106680000D03*
X152146000Y-106680000D03*
X154686000Y-106680000D03*
X157226000Y-106680000D03*
X162306000Y-106680000D03*
X164846000Y-106680000D03*
X167386000Y-106680000D03*
X169926000Y-106680000D03*
X172466000Y-106680000D03*
X175006000Y-106680000D03*
X175006000Y-58420000D03*
X172466000Y-58420000D03*
X169926000Y-58420000D03*
X167386000Y-58420000D03*
X164846000Y-58420000D03*
X162306000Y-58420000D03*
X159766000Y-58420000D03*
X157226000Y-58420000D03*
X153166000Y-58420000D03*
X150626000Y-58420000D03*
X148086000Y-58420000D03*
X145546000Y-58420000D03*
X143006000Y-58420000D03*
X140466000Y-58420000D03*
X137926000Y-58420000D03*
X135386000Y-58420000D03*
X132846000Y-58420000D03*
X130306000Y-58420000D03*
D18*
X144145000Y-79375000D03*
X125095000Y-76200000D03*
X119634000Y-78232000D03*
X113919000Y-92710000D03*
X118872000Y-84074000D03*
X128016000Y-90170000D03*
X128524000Y-81026000D03*
X161798000Y-79502000D03*
X114554000Y-82550000D03*
X157480000Y-97790000D03*
X138430000Y-67945000D03*
D19*
X128016000Y-90170000D02*
X128033300Y-90152700D01*
X128033300Y-90152700D02*
X128033300Y-88404700D01*
X128524000Y-81026000D02*
X128033300Y-81516700D01*
X128033300Y-81516700D02*
X128033300Y-82689700D01*
X161798000Y-81129500D02*
X161798000Y-79502000D01*
X165134900Y-84556601D02*
X163400101Y-84556601D01*
X163400101Y-84556601D02*
X161798000Y-82954500D01*
X125095000Y-76200000D02*
X118176000Y-76200000D01*
X118176000Y-76200000D02*
X116144000Y-78232000D01*
X113919000Y-92710000D02*
X113919000Y-94251300D01*
X113919000Y-94251300D02*
X113847400Y-94322900D01*
X114568717Y-81079258D02*
X114568717Y-82535283D01*
X114568717Y-82535283D02*
X114554000Y-82550000D01*
X118872000Y-84074000D02*
X117325999Y-84074000D01*
X117325999Y-84074000D02*
X117193027Y-83941028D01*
X118044000Y-78232000D02*
X119634000Y-78232000D01*
X117193027Y-86125428D02*
X116850127Y-86125428D01*
X116850127Y-86125428D02*
X116119216Y-85394517D01*
X116119216Y-85394517D02*
X116119216Y-78256784D01*
X116119216Y-78256784D02*
X116144000Y-78232000D01*
X147066000Y-82296000D02*
X147066000Y-106680000D01*
X144145000Y-79375000D02*
X147066000Y-82296000D01*
X157226000Y-98044000D02*
X157226000Y-106680000D01*
X157480000Y-97790000D02*
X157226000Y-98044000D01*
X172134901Y-95986601D02*
X165134900Y-95986601D01*
X165134900Y-84556601D02*
X162306000Y-87385501D01*
X162306000Y-87385501D02*
X162306000Y-106680000D01*
X172134901Y-84556601D02*
X165134900Y-84556601D01*
X148086000Y-65909000D02*
X148086000Y-58420000D01*
X117802627Y-88309828D02*
X125685172Y-88309828D01*
X125685172Y-88309828D02*
X148086000Y-65909000D01*
X145546000Y-67426222D02*
X145546000Y-58420000D01*
X125754594Y-87217628D02*
X145546000Y-67426222D01*
X117396227Y-87217628D02*
X125754594Y-87217628D01*
X117396227Y-82848828D02*
X123526172Y-82848828D01*
X123526172Y-82848828D02*
X138430000Y-67945000D01*
X117396227Y-85033228D02*
X123246772Y-85033228D01*
X140466000Y-67814000D02*
X140466000Y-58420000D01*
X123246772Y-85033228D02*
X140466000Y-67814000D01*
M02*
