G04 #@! TF.GenerationSoftware,KiCad,Pcbnew,6.0.2+dfsg-1*
G04 #@! TF.CreationDate,2024-02-20T11:24:06-07:00*
G04 #@! TF.ProjectId,battery_load_tester,62617474-6572-4795-9f6c-6f61645f7465,rev?*
G04 #@! TF.SameCoordinates,Original*
G04 #@! TF.FileFunction,Legend,Top*
G04 #@! TF.FilePolarity,Positive*
%FSLAX46Y46*%
G04 Gerber Fmt 4.6, Leading zero omitted, Abs format (unit mm)*
G04 Created by KiCad (PCBNEW 6.0.2+dfsg-1) date 2024-02-20 11:24:06*
%MOMM*%
%LPD*%
G01*
G04 APERTURE LIST*
%ADD10C,0.150000*%
%ADD11C,0.152400*%
%ADD12C,0.120000*%
%ADD13C,0.508000*%
G04 APERTURE END LIST*
D10*
X178522380Y-91122380D02*
X179522380Y-90789047D01*
X178522380Y-90455714D01*
X179141428Y-90122380D02*
X179141428Y-89360476D01*
X159646952Y-83256380D02*
X159075523Y-83256380D01*
X159361238Y-83256380D02*
X159361238Y-82256380D01*
X159266000Y-82399238D01*
X159170761Y-82494476D01*
X159075523Y-82542095D01*
X160075523Y-83256380D02*
X160075523Y-82256380D01*
X160170761Y-82875428D02*
X160456476Y-83256380D01*
X160456476Y-82589714D02*
X160075523Y-82970666D01*
X156202190Y-107910380D02*
X156535523Y-108910380D01*
X156868857Y-107910380D01*
X157202190Y-108910380D02*
X157202190Y-108243714D01*
X157202190Y-107910380D02*
X157154571Y-107958000D01*
X157202190Y-108005619D01*
X157249809Y-107958000D01*
X157202190Y-107910380D01*
X157202190Y-108005619D01*
X157678380Y-108243714D02*
X157678380Y-108910380D01*
X157678380Y-108338952D02*
X157726000Y-108291333D01*
X157821238Y-108243714D01*
X157964095Y-108243714D01*
X158059333Y-108291333D01*
X158106952Y-108386571D01*
X158106952Y-108910380D01*
X112752761Y-106057571D02*
X112895619Y-106105190D01*
X112943238Y-106152809D01*
X112990857Y-106248047D01*
X112990857Y-106390904D01*
X112943238Y-106486142D01*
X112895619Y-106533761D01*
X112800380Y-106581380D01*
X112419428Y-106581380D01*
X112419428Y-105581380D01*
X112752761Y-105581380D01*
X112848000Y-105629000D01*
X112895619Y-105676619D01*
X112943238Y-105771857D01*
X112943238Y-105867095D01*
X112895619Y-105962333D01*
X112848000Y-106009952D01*
X112752761Y-106057571D01*
X112419428Y-106057571D01*
X113848000Y-106581380D02*
X113848000Y-106057571D01*
X113800380Y-105962333D01*
X113705142Y-105914714D01*
X113514666Y-105914714D01*
X113419428Y-105962333D01*
X113848000Y-106533761D02*
X113752761Y-106581380D01*
X113514666Y-106581380D01*
X113419428Y-106533761D01*
X113371809Y-106438523D01*
X113371809Y-106343285D01*
X113419428Y-106248047D01*
X113514666Y-106200428D01*
X113752761Y-106200428D01*
X113848000Y-106152809D01*
X114181333Y-105914714D02*
X114562285Y-105914714D01*
X114324190Y-105581380D02*
X114324190Y-106438523D01*
X114371809Y-106533761D01*
X114467047Y-106581380D01*
X114562285Y-106581380D01*
X114752761Y-105914714D02*
X115133714Y-105914714D01*
X114895619Y-105581380D02*
X114895619Y-106438523D01*
X114943238Y-106533761D01*
X115038476Y-106581380D01*
X115133714Y-106581380D01*
X115848000Y-106533761D02*
X115752761Y-106581380D01*
X115562285Y-106581380D01*
X115467047Y-106533761D01*
X115419428Y-106438523D01*
X115419428Y-106057571D01*
X115467047Y-105962333D01*
X115562285Y-105914714D01*
X115752761Y-105914714D01*
X115848000Y-105962333D01*
X115895619Y-106057571D01*
X115895619Y-106152809D01*
X115419428Y-106248047D01*
X116324190Y-106581380D02*
X116324190Y-105914714D01*
X116324190Y-106105190D02*
X116371809Y-106009952D01*
X116419428Y-105962333D01*
X116514666Y-105914714D01*
X116609904Y-105914714D01*
X116848000Y-105914714D02*
X117086095Y-106581380D01*
X117324190Y-105914714D02*
X117086095Y-106581380D01*
X116990857Y-106819476D01*
X116943238Y-106867095D01*
X116848000Y-106914714D01*
X118943238Y-106581380D02*
X118467047Y-106581380D01*
X118467047Y-105581380D01*
X119419428Y-106581380D02*
X119324190Y-106533761D01*
X119276571Y-106486142D01*
X119228952Y-106390904D01*
X119228952Y-106105190D01*
X119276571Y-106009952D01*
X119324190Y-105962333D01*
X119419428Y-105914714D01*
X119562285Y-105914714D01*
X119657523Y-105962333D01*
X119705142Y-106009952D01*
X119752761Y-106105190D01*
X119752761Y-106390904D01*
X119705142Y-106486142D01*
X119657523Y-106533761D01*
X119562285Y-106581380D01*
X119419428Y-106581380D01*
X120609904Y-106581380D02*
X120609904Y-106057571D01*
X120562285Y-105962333D01*
X120467047Y-105914714D01*
X120276571Y-105914714D01*
X120181333Y-105962333D01*
X120609904Y-106533761D02*
X120514666Y-106581380D01*
X120276571Y-106581380D01*
X120181333Y-106533761D01*
X120133714Y-106438523D01*
X120133714Y-106343285D01*
X120181333Y-106248047D01*
X120276571Y-106200428D01*
X120514666Y-106200428D01*
X120609904Y-106152809D01*
X121514666Y-106581380D02*
X121514666Y-105581380D01*
X121514666Y-106533761D02*
X121419428Y-106581380D01*
X121228952Y-106581380D01*
X121133714Y-106533761D01*
X121086095Y-106486142D01*
X121038476Y-106390904D01*
X121038476Y-106105190D01*
X121086095Y-106009952D01*
X121133714Y-105962333D01*
X121228952Y-105914714D01*
X121419428Y-105914714D01*
X121514666Y-105962333D01*
X112586095Y-107191380D02*
X113157523Y-107191380D01*
X112871809Y-108191380D02*
X112871809Y-107191380D01*
X113871809Y-108143761D02*
X113776571Y-108191380D01*
X113586095Y-108191380D01*
X113490857Y-108143761D01*
X113443238Y-108048523D01*
X113443238Y-107667571D01*
X113490857Y-107572333D01*
X113586095Y-107524714D01*
X113776571Y-107524714D01*
X113871809Y-107572333D01*
X113919428Y-107667571D01*
X113919428Y-107762809D01*
X113443238Y-107858047D01*
X114300380Y-108143761D02*
X114395619Y-108191380D01*
X114586095Y-108191380D01*
X114681333Y-108143761D01*
X114728952Y-108048523D01*
X114728952Y-108000904D01*
X114681333Y-107905666D01*
X114586095Y-107858047D01*
X114443238Y-107858047D01*
X114348000Y-107810428D01*
X114300380Y-107715190D01*
X114300380Y-107667571D01*
X114348000Y-107572333D01*
X114443238Y-107524714D01*
X114586095Y-107524714D01*
X114681333Y-107572333D01*
X115014666Y-107524714D02*
X115395619Y-107524714D01*
X115157523Y-107191380D02*
X115157523Y-108048523D01*
X115205142Y-108143761D01*
X115300380Y-108191380D01*
X115395619Y-108191380D01*
X116109904Y-108143761D02*
X116014666Y-108191380D01*
X115824190Y-108191380D01*
X115728952Y-108143761D01*
X115681333Y-108048523D01*
X115681333Y-107667571D01*
X115728952Y-107572333D01*
X115824190Y-107524714D01*
X116014666Y-107524714D01*
X116109904Y-107572333D01*
X116157523Y-107667571D01*
X116157523Y-107762809D01*
X115681333Y-107858047D01*
X116586095Y-108191380D02*
X116586095Y-107524714D01*
X116586095Y-107715190D02*
X116633714Y-107619952D01*
X116681333Y-107572333D01*
X116776571Y-107524714D01*
X116871809Y-107524714D01*
X118252761Y-108572333D02*
X118205142Y-108524714D01*
X118109904Y-108381857D01*
X118062285Y-108286619D01*
X118014666Y-108143761D01*
X117967047Y-107905666D01*
X117967047Y-107715190D01*
X118014666Y-107477095D01*
X118062285Y-107334238D01*
X118109904Y-107239000D01*
X118205142Y-107096142D01*
X118252761Y-107048523D01*
X118538476Y-107524714D02*
X118776571Y-108191380D01*
X119014666Y-107524714D01*
X119919428Y-108191380D02*
X119348000Y-108191380D01*
X119633714Y-108191380D02*
X119633714Y-107191380D01*
X119538476Y-107334238D01*
X119443238Y-107429476D01*
X119348000Y-107477095D01*
X120348000Y-108096142D02*
X120395619Y-108143761D01*
X120348000Y-108191380D01*
X120300380Y-108143761D01*
X120348000Y-108096142D01*
X120348000Y-108191380D01*
X121014666Y-107191380D02*
X121109904Y-107191380D01*
X121205142Y-107239000D01*
X121252761Y-107286619D01*
X121300380Y-107381857D01*
X121348000Y-107572333D01*
X121348000Y-107810428D01*
X121300380Y-108000904D01*
X121252761Y-108096142D01*
X121205142Y-108143761D01*
X121109904Y-108191380D01*
X121014666Y-108191380D01*
X120919428Y-108143761D01*
X120871809Y-108096142D01*
X120824190Y-108000904D01*
X120776571Y-107810428D01*
X120776571Y-107572333D01*
X120824190Y-107381857D01*
X120871809Y-107286619D01*
X120919428Y-107239000D01*
X121014666Y-107191380D01*
X121681333Y-108572333D02*
X121728952Y-108524714D01*
X121824190Y-108381857D01*
X121871809Y-108286619D01*
X121919428Y-108143761D01*
X121967047Y-107905666D01*
X121967047Y-107715190D01*
X121919428Y-107477095D01*
X121871809Y-107334238D01*
X121824190Y-107239000D01*
X121728952Y-107096142D01*
X121681333Y-107048523D01*
X167021523Y-99480666D02*
X167497714Y-99480666D01*
X166926285Y-99766380D02*
X167259619Y-98766380D01*
X167592952Y-99766380D01*
X167926285Y-99766380D02*
X167926285Y-99099714D01*
X167926285Y-99290190D02*
X167973904Y-99194952D01*
X168021523Y-99147333D01*
X168116761Y-99099714D01*
X168212000Y-99099714D01*
X168973904Y-99766380D02*
X168973904Y-98766380D01*
X168973904Y-99718761D02*
X168878666Y-99766380D01*
X168688190Y-99766380D01*
X168592952Y-99718761D01*
X168545333Y-99671142D01*
X168497714Y-99575904D01*
X168497714Y-99290190D01*
X168545333Y-99194952D01*
X168592952Y-99147333D01*
X168688190Y-99099714D01*
X168878666Y-99099714D01*
X168973904Y-99147333D01*
X169878666Y-99099714D02*
X169878666Y-99766380D01*
X169450095Y-99099714D02*
X169450095Y-99623523D01*
X169497714Y-99718761D01*
X169592952Y-99766380D01*
X169735809Y-99766380D01*
X169831047Y-99718761D01*
X169878666Y-99671142D01*
X170354857Y-99766380D02*
X170354857Y-99099714D01*
X170354857Y-98766380D02*
X170307238Y-98814000D01*
X170354857Y-98861619D01*
X170402476Y-98814000D01*
X170354857Y-98766380D01*
X170354857Y-98861619D01*
X170831047Y-99099714D02*
X170831047Y-99766380D01*
X170831047Y-99194952D02*
X170878666Y-99147333D01*
X170973904Y-99099714D01*
X171116761Y-99099714D01*
X171212000Y-99147333D01*
X171259619Y-99242571D01*
X171259619Y-99766380D01*
X171878666Y-99766380D02*
X171783428Y-99718761D01*
X171735809Y-99671142D01*
X171688190Y-99575904D01*
X171688190Y-99290190D01*
X171735809Y-99194952D01*
X171783428Y-99147333D01*
X171878666Y-99099714D01*
X172021523Y-99099714D01*
X172116761Y-99147333D01*
X172164380Y-99194952D01*
X172212000Y-99290190D01*
X172212000Y-99575904D01*
X172164380Y-99671142D01*
X172116761Y-99718761D01*
X172021523Y-99766380D01*
X171878666Y-99766380D01*
X173402476Y-99766380D02*
X173402476Y-98766380D01*
X173783428Y-98766380D01*
X173878666Y-98814000D01*
X173926285Y-98861619D01*
X173973904Y-98956857D01*
X173973904Y-99099714D01*
X173926285Y-99194952D01*
X173878666Y-99242571D01*
X173783428Y-99290190D01*
X173402476Y-99290190D01*
X174545333Y-99766380D02*
X174450095Y-99718761D01*
X174402476Y-99671142D01*
X174354857Y-99575904D01*
X174354857Y-99290190D01*
X174402476Y-99194952D01*
X174450095Y-99147333D01*
X174545333Y-99099714D01*
X174688190Y-99099714D01*
X174783428Y-99147333D01*
X174831047Y-99194952D01*
X174878666Y-99290190D01*
X174878666Y-99575904D01*
X174831047Y-99671142D01*
X174783428Y-99718761D01*
X174688190Y-99766380D01*
X174545333Y-99766380D01*
X175212000Y-99099714D02*
X175402476Y-99766380D01*
X175592952Y-99290190D01*
X175783428Y-99766380D01*
X175973904Y-99099714D01*
X176735809Y-99718761D02*
X176640571Y-99766380D01*
X176450095Y-99766380D01*
X176354857Y-99718761D01*
X176307238Y-99623523D01*
X176307238Y-99242571D01*
X176354857Y-99147333D01*
X176450095Y-99099714D01*
X176640571Y-99099714D01*
X176735809Y-99147333D01*
X176783428Y-99242571D01*
X176783428Y-99337809D01*
X176307238Y-99433047D01*
X177212000Y-99766380D02*
X177212000Y-99099714D01*
X177212000Y-99290190D02*
X177259619Y-99194952D01*
X177307238Y-99147333D01*
X177402476Y-99099714D01*
X177497714Y-99099714D01*
X178522380Y-97472380D02*
X179522380Y-97139047D01*
X178522380Y-96805714D01*
X179141428Y-96472380D02*
X179141428Y-95710476D01*
X179522380Y-96091428D02*
X178760476Y-96091428D01*
X115070190Y-75652380D02*
X115165428Y-75652380D01*
X115260666Y-75700000D01*
X115308285Y-75747619D01*
X115355904Y-75842857D01*
X115403523Y-76033333D01*
X115403523Y-76271428D01*
X115355904Y-76461904D01*
X115308285Y-76557142D01*
X115260666Y-76604761D01*
X115165428Y-76652380D01*
X115070190Y-76652380D01*
X114974952Y-76604761D01*
X114927333Y-76557142D01*
X114879714Y-76461904D01*
X114832095Y-76271428D01*
X114832095Y-76033333D01*
X114879714Y-75842857D01*
X114927333Y-75747619D01*
X114974952Y-75700000D01*
X115070190Y-75652380D01*
X115832095Y-76557142D02*
X115879714Y-76604761D01*
X115832095Y-76652380D01*
X115784476Y-76604761D01*
X115832095Y-76557142D01*
X115832095Y-76652380D01*
X116832095Y-76652380D02*
X116260666Y-76652380D01*
X116546380Y-76652380D02*
X116546380Y-75652380D01*
X116451142Y-75795238D01*
X116355904Y-75890476D01*
X116260666Y-75938095D01*
X118451142Y-75985714D02*
X118451142Y-76652380D01*
X118022571Y-75985714D02*
X118022571Y-76509523D01*
X118070190Y-76604761D01*
X118165428Y-76652380D01*
X118308285Y-76652380D01*
X118403523Y-76604761D01*
X118451142Y-76557142D01*
X119260666Y-76128571D02*
X118927333Y-76128571D01*
X118927333Y-76652380D02*
X118927333Y-75652380D01*
X119403523Y-75652380D01*
X161845714Y-108624666D02*
X162321904Y-108624666D01*
X161750476Y-108910380D02*
X162083809Y-107910380D01*
X162417142Y-108910380D01*
X162940952Y-107910380D02*
X163036190Y-107910380D01*
X163131428Y-107958000D01*
X163179047Y-108005619D01*
X163226666Y-108100857D01*
X163274285Y-108291333D01*
X163274285Y-108529428D01*
X163226666Y-108719904D01*
X163179047Y-108815142D01*
X163131428Y-108862761D01*
X163036190Y-108910380D01*
X162940952Y-108910380D01*
X162845714Y-108862761D01*
X162798095Y-108815142D01*
X162750476Y-108719904D01*
X162702857Y-108529428D01*
X162702857Y-108291333D01*
X162750476Y-108100857D01*
X162798095Y-108005619D01*
X162845714Y-107958000D01*
X162940952Y-107910380D01*
X178522380Y-79692380D02*
X179522380Y-79359047D01*
X178522380Y-79025714D01*
X179141428Y-78692380D02*
X179141428Y-77930476D01*
X178522380Y-86042380D02*
X179522380Y-85709047D01*
X178522380Y-85375714D01*
X179141428Y-85042380D02*
X179141428Y-84280476D01*
X179522380Y-84661428D02*
X178760476Y-84661428D01*
X145589809Y-107910380D02*
X146208857Y-107910380D01*
X145875523Y-108291333D01*
X146018380Y-108291333D01*
X146113619Y-108338952D01*
X146161238Y-108386571D01*
X146208857Y-108481809D01*
X146208857Y-108719904D01*
X146161238Y-108815142D01*
X146113619Y-108862761D01*
X146018380Y-108910380D01*
X145732666Y-108910380D01*
X145637428Y-108862761D01*
X145589809Y-108815142D01*
X146637428Y-108815142D02*
X146685047Y-108862761D01*
X146637428Y-108910380D01*
X146589809Y-108862761D01*
X146637428Y-108815142D01*
X146637428Y-108910380D01*
X147018380Y-107910380D02*
X147637428Y-107910380D01*
X147304095Y-108291333D01*
X147446952Y-108291333D01*
X147542190Y-108338952D01*
X147589809Y-108386571D01*
X147637428Y-108481809D01*
X147637428Y-108719904D01*
X147589809Y-108815142D01*
X147542190Y-108862761D01*
X147446952Y-108910380D01*
X147161238Y-108910380D01*
X147066000Y-108862761D01*
X147018380Y-108815142D01*
X147923142Y-107910380D02*
X148256476Y-108910380D01*
X148589809Y-107910380D01*
X168545428Y-75398380D02*
X169116857Y-75398380D01*
X168831142Y-76398380D02*
X168831142Y-75398380D01*
X169831142Y-76350761D02*
X169735904Y-76398380D01*
X169545428Y-76398380D01*
X169450190Y-76350761D01*
X169402571Y-76255523D01*
X169402571Y-75874571D01*
X169450190Y-75779333D01*
X169545428Y-75731714D01*
X169735904Y-75731714D01*
X169831142Y-75779333D01*
X169878761Y-75874571D01*
X169878761Y-75969809D01*
X169402571Y-76065047D01*
X170259714Y-76350761D02*
X170354952Y-76398380D01*
X170545428Y-76398380D01*
X170640666Y-76350761D01*
X170688285Y-76255523D01*
X170688285Y-76207904D01*
X170640666Y-76112666D01*
X170545428Y-76065047D01*
X170402571Y-76065047D01*
X170307333Y-76017428D01*
X170259714Y-75922190D01*
X170259714Y-75874571D01*
X170307333Y-75779333D01*
X170402571Y-75731714D01*
X170545428Y-75731714D01*
X170640666Y-75779333D01*
X170974000Y-75731714D02*
X171354952Y-75731714D01*
X171116857Y-75398380D02*
X171116857Y-76255523D01*
X171164476Y-76350761D01*
X171259714Y-76398380D01*
X171354952Y-76398380D01*
X172783523Y-75874571D02*
X172926380Y-75922190D01*
X172974000Y-75969809D01*
X173021619Y-76065047D01*
X173021619Y-76207904D01*
X172974000Y-76303142D01*
X172926380Y-76350761D01*
X172831142Y-76398380D01*
X172450190Y-76398380D01*
X172450190Y-75398380D01*
X172783523Y-75398380D01*
X172878761Y-75446000D01*
X172926380Y-75493619D01*
X172974000Y-75588857D01*
X172974000Y-75684095D01*
X172926380Y-75779333D01*
X172878761Y-75826952D01*
X172783523Y-75874571D01*
X172450190Y-75874571D01*
X173878761Y-76398380D02*
X173878761Y-75874571D01*
X173831142Y-75779333D01*
X173735904Y-75731714D01*
X173545428Y-75731714D01*
X173450190Y-75779333D01*
X173878761Y-76350761D02*
X173783523Y-76398380D01*
X173545428Y-76398380D01*
X173450190Y-76350761D01*
X173402571Y-76255523D01*
X173402571Y-76160285D01*
X173450190Y-76065047D01*
X173545428Y-76017428D01*
X173783523Y-76017428D01*
X173878761Y-75969809D01*
X174212095Y-75731714D02*
X174593047Y-75731714D01*
X174354952Y-75398380D02*
X174354952Y-76255523D01*
X174402571Y-76350761D01*
X174497809Y-76398380D01*
X174593047Y-76398380D01*
X174783523Y-75731714D02*
X175164476Y-75731714D01*
X174926380Y-75398380D02*
X174926380Y-76255523D01*
X174974000Y-76350761D01*
X175069238Y-76398380D01*
X175164476Y-76398380D01*
X175878761Y-76350761D02*
X175783523Y-76398380D01*
X175593047Y-76398380D01*
X175497809Y-76350761D01*
X175450190Y-76255523D01*
X175450190Y-75874571D01*
X175497809Y-75779333D01*
X175593047Y-75731714D01*
X175783523Y-75731714D01*
X175878761Y-75779333D01*
X175926380Y-75874571D01*
X175926380Y-75969809D01*
X175450190Y-76065047D01*
X176354952Y-76398380D02*
X176354952Y-75731714D01*
X176354952Y-75922190D02*
X176402571Y-75826952D01*
X176450190Y-75779333D01*
X176545428Y-75731714D01*
X176640666Y-75731714D01*
X176878761Y-75731714D02*
X177116857Y-76398380D01*
X177354952Y-75731714D02*
X177116857Y-76398380D01*
X177021619Y-76636476D01*
X176974000Y-76684095D01*
X176878761Y-76731714D01*
X120570666Y-90892380D02*
X120570666Y-91606666D01*
X120523047Y-91749523D01*
X120427809Y-91844761D01*
X120284952Y-91892380D01*
X120189714Y-91892380D01*
X120951619Y-90892380D02*
X121570666Y-90892380D01*
X121237333Y-91273333D01*
X121380190Y-91273333D01*
X121475428Y-91320952D01*
X121523047Y-91368571D01*
X121570666Y-91463809D01*
X121570666Y-91701904D01*
X121523047Y-91797142D01*
X121475428Y-91844761D01*
X121380190Y-91892380D01*
X121094476Y-91892380D01*
X120999238Y-91844761D01*
X120951619Y-91797142D01*
X114133333Y-78589142D02*
X114085714Y-78636761D01*
X113942857Y-78684380D01*
X113847619Y-78684380D01*
X113704761Y-78636761D01*
X113609523Y-78541523D01*
X113561904Y-78446285D01*
X113514285Y-78255809D01*
X113514285Y-78112952D01*
X113561904Y-77922476D01*
X113609523Y-77827238D01*
X113704761Y-77732000D01*
X113847619Y-77684380D01*
X113942857Y-77684380D01*
X114085714Y-77732000D01*
X114133333Y-77779619D01*
X115085714Y-78684380D02*
X114514285Y-78684380D01*
X114800000Y-78684380D02*
X114800000Y-77684380D01*
X114704761Y-77827238D01*
X114609523Y-77922476D01*
X114514285Y-77970095D01*
X159599333Y-81478380D02*
X159266000Y-81002190D01*
X159027904Y-81478380D02*
X159027904Y-80478380D01*
X159408857Y-80478380D01*
X159504095Y-80526000D01*
X159551714Y-80573619D01*
X159599333Y-80668857D01*
X159599333Y-80811714D01*
X159551714Y-80906952D01*
X159504095Y-80954571D01*
X159408857Y-81002190D01*
X159027904Y-81002190D01*
X160551714Y-81478380D02*
X159980285Y-81478380D01*
X160266000Y-81478380D02*
X160266000Y-80478380D01*
X160170761Y-80621238D01*
X160075523Y-80716476D01*
X159980285Y-80764095D01*
X168087281Y-93779934D02*
X168801567Y-93779934D01*
X168944424Y-93827553D01*
X169039662Y-93922791D01*
X169087281Y-94065648D01*
X169087281Y-94160886D01*
X169087281Y-92779934D02*
X169087281Y-93351362D01*
X169087281Y-93065648D02*
X168087281Y-93065648D01*
X168230139Y-93160886D01*
X168325377Y-93256124D01*
X168372996Y-93351362D01*
X168087281Y-82349934D02*
X168801567Y-82349934D01*
X168944424Y-82397553D01*
X169039662Y-82492791D01*
X169087281Y-82635648D01*
X169087281Y-82730886D01*
X168182520Y-81921362D02*
X168134901Y-81873743D01*
X168087281Y-81778505D01*
X168087281Y-81540410D01*
X168134901Y-81445172D01*
X168182520Y-81397553D01*
X168277758Y-81349934D01*
X168372996Y-81349934D01*
X168515853Y-81397553D01*
X169087281Y-81968981D01*
X169087281Y-81349934D01*
D11*
X115132640Y-94627700D02*
X128439700Y-94627700D01*
X128439700Y-87297260D02*
X128439700Y-84051140D01*
D12*
X112082100Y-79756000D02*
X111701100Y-80264000D01*
D11*
X128439700Y-94627700D02*
X128439700Y-89766140D01*
D12*
X112082100Y-79756000D02*
X113225100Y-79756000D01*
X111701100Y-90932000D02*
X112082100Y-91440000D01*
X111701100Y-90932000D02*
X111701100Y-80264000D01*
D11*
X128439700Y-81582260D02*
X128439700Y-80632300D01*
X113250500Y-80632300D02*
X113250500Y-93291660D01*
X128439700Y-80632300D02*
X115869240Y-80632300D01*
D12*
X112082100Y-91440000D02*
X113225100Y-91440000D01*
X117355252Y-77497000D02*
X116832748Y-77497000D01*
X117355252Y-78967000D02*
X116832748Y-78967000D01*
X161063000Y-82269064D02*
X161063000Y-81814936D01*
X162533000Y-82269064D02*
X162533000Y-81814936D01*
D11*
X163307901Y-98213602D02*
X177561901Y-98213602D01*
X163307901Y-88679600D02*
X163307901Y-98213602D01*
X177561901Y-88679600D02*
X163307901Y-88679600D01*
X177561901Y-98213602D02*
X177561901Y-88679600D01*
D13*
X165515900Y-98848601D02*
G75*
G03*
X165515900Y-98848601I-381000J0D01*
G01*
D11*
X177561901Y-77249600D02*
X163307901Y-77249600D01*
X177561901Y-86783602D02*
X177561901Y-77249600D01*
X163307901Y-86783602D02*
X177561901Y-86783602D01*
X163307901Y-77249600D02*
X163307901Y-86783602D01*
D13*
X165515900Y-87418601D02*
G75*
G03*
X165515900Y-87418601I-381000J0D01*
G01*
M02*
