G04 #@! TF.GenerationSoftware,KiCad,Pcbnew,6.0.2+dfsg-1*
G04 #@! TF.CreationDate,2024-02-20T11:24:06-07:00*
G04 #@! TF.ProjectId,battery_load_tester,62617474-6572-4795-9f6c-6f61645f7465,rev?*
G04 #@! TF.SameCoordinates,Original*
G04 #@! TF.FileFunction,Copper,L2,Bot*
G04 #@! TF.FilePolarity,Positive*
%FSLAX46Y46*%
G04 Gerber Fmt 4.6, Leading zero omitted, Abs format (unit mm)*
G04 Created by KiCad (PCBNEW 6.0.2+dfsg-1) date 2024-02-20 11:24:06*
%MOMM*%
%LPD*%
G01*
G04 APERTURE LIST*
G04 #@! TA.AperFunction,ComponentPad*
%ADD10C,1.707896*%
G04 #@! TD*
G04 #@! TA.AperFunction,ComponentPad*
%ADD11R,1.600000X1.600000*%
G04 #@! TD*
G04 #@! TA.AperFunction,ComponentPad*
%ADD12O,1.600000X1.600000*%
G04 #@! TD*
G04 #@! TA.AperFunction,ViaPad*
%ADD13C,0.800000*%
G04 #@! TD*
G04 #@! TA.AperFunction,Conductor*
%ADD14C,0.250000*%
G04 #@! TD*
G04 APERTURE END LIST*
D10*
X165134900Y-95986601D03*
X172134901Y-95986601D03*
X165134900Y-90906601D03*
X172134901Y-90906601D03*
X165134900Y-84556601D03*
X172134901Y-84556601D03*
X165134900Y-79476601D03*
X172134901Y-79476601D03*
D11*
X139446000Y-106680000D03*
D12*
X141986000Y-106680000D03*
X144526000Y-106680000D03*
X147066000Y-106680000D03*
X149606000Y-106680000D03*
X152146000Y-106680000D03*
X154686000Y-106680000D03*
X157226000Y-106680000D03*
X162306000Y-106680000D03*
X164846000Y-106680000D03*
X167386000Y-106680000D03*
X169926000Y-106680000D03*
X172466000Y-106680000D03*
X175006000Y-106680000D03*
X175006000Y-58420000D03*
X172466000Y-58420000D03*
X169926000Y-58420000D03*
X167386000Y-58420000D03*
X164846000Y-58420000D03*
X162306000Y-58420000D03*
X159766000Y-58420000D03*
X157226000Y-58420000D03*
X153166000Y-58420000D03*
X150626000Y-58420000D03*
X148086000Y-58420000D03*
X145546000Y-58420000D03*
X143006000Y-58420000D03*
X140466000Y-58420000D03*
X137926000Y-58420000D03*
X135386000Y-58420000D03*
X132846000Y-58420000D03*
X130306000Y-58420000D03*
D13*
X144145000Y-79375000D03*
X125095000Y-76200000D03*
X119634000Y-78232000D03*
X113919000Y-92710000D03*
X118872000Y-84074000D03*
X128016000Y-90170000D03*
X128524000Y-81026000D03*
X161798000Y-79502000D03*
X114554000Y-82550000D03*
X157480000Y-97790000D03*
X138430000Y-67945000D03*
D14*
X144145000Y-79375000D02*
X140970000Y-76200000D01*
X140970000Y-76200000D02*
X125095000Y-76200000D01*
X159283399Y-95986601D02*
X157480000Y-97790000D01*
X165134900Y-95986601D02*
X159283399Y-95986601D01*
X143006000Y-63369000D02*
X143006000Y-58420000D01*
X138430000Y-67945000D02*
X143006000Y-63369000D01*
G04 #@! TA.AperFunction,Conductor*
G36*
X124894443Y-57170002D02*
G01*
X124940936Y-57223658D01*
X124951040Y-57293932D01*
X124933754Y-57341835D01*
X124875320Y-57437190D01*
X124875316Y-57437198D01*
X124873073Y-57440858D01*
X124871347Y-57444791D01*
X124871346Y-57444792D01*
X124811901Y-57580211D01*
X124757517Y-57704102D01*
X124756342Y-57708229D01*
X124756341Y-57708230D01*
X124754613Y-57714296D01*
X124678756Y-57980594D01*
X124638249Y-58265216D01*
X124638227Y-58269505D01*
X124638226Y-58269512D01*
X124637438Y-58420000D01*
X124636743Y-58552703D01*
X124637302Y-58556947D01*
X124637302Y-58556951D01*
X124650000Y-58653402D01*
X124674268Y-58837734D01*
X124675401Y-58841874D01*
X124675401Y-58841876D01*
X124679035Y-58855160D01*
X124750129Y-59115036D01*
X124862923Y-59379476D01*
X124874693Y-59399142D01*
X124967593Y-59554366D01*
X125010561Y-59626161D01*
X125190313Y-59850528D01*
X125398851Y-60048423D01*
X125632317Y-60216186D01*
X125636112Y-60218195D01*
X125636113Y-60218196D01*
X125657869Y-60229715D01*
X125886392Y-60350712D01*
X126156373Y-60449511D01*
X126437264Y-60510755D01*
X126465841Y-60513004D01*
X126660282Y-60528307D01*
X126660291Y-60528307D01*
X126662739Y-60528500D01*
X126818271Y-60528500D01*
X126820407Y-60528354D01*
X126820418Y-60528354D01*
X127028548Y-60514165D01*
X127028554Y-60514164D01*
X127032825Y-60513873D01*
X127037020Y-60513004D01*
X127037022Y-60513004D01*
X127173583Y-60484724D01*
X127314342Y-60455574D01*
X127585343Y-60359607D01*
X127840812Y-60227750D01*
X127844313Y-60225289D01*
X127844317Y-60225287D01*
X127958417Y-60145096D01*
X128076023Y-60062441D01*
X128286622Y-59866740D01*
X128468713Y-59644268D01*
X128618927Y-59399142D01*
X128678119Y-59264300D01*
X128732757Y-59139830D01*
X128734483Y-59135898D01*
X128813244Y-58859406D01*
X128815119Y-58846231D01*
X128844520Y-58781608D01*
X128904192Y-58743140D01*
X128975188Y-58743038D01*
X129034969Y-58781337D01*
X129061569Y-58831374D01*
X129071716Y-58869243D01*
X129074039Y-58874224D01*
X129074039Y-58874225D01*
X129166151Y-59071762D01*
X129166154Y-59071767D01*
X129168477Y-59076749D01*
X129299802Y-59264300D01*
X129461700Y-59426198D01*
X129466208Y-59429355D01*
X129466211Y-59429357D01*
X129544389Y-59484098D01*
X129649251Y-59557523D01*
X129654233Y-59559846D01*
X129654238Y-59559849D01*
X129803624Y-59629508D01*
X129856757Y-59654284D01*
X129862065Y-59655706D01*
X129862067Y-59655707D01*
X130072598Y-59712119D01*
X130072600Y-59712119D01*
X130077913Y-59713543D01*
X130306000Y-59733498D01*
X130534087Y-59713543D01*
X130539400Y-59712119D01*
X130539402Y-59712119D01*
X130749933Y-59655707D01*
X130749935Y-59655706D01*
X130755243Y-59654284D01*
X130808376Y-59629508D01*
X130957762Y-59559849D01*
X130957767Y-59559846D01*
X130962749Y-59557523D01*
X131067611Y-59484098D01*
X131145789Y-59429357D01*
X131145792Y-59429355D01*
X131150300Y-59426198D01*
X131312198Y-59264300D01*
X131443523Y-59076749D01*
X131445846Y-59071767D01*
X131445849Y-59071762D01*
X131461805Y-59037543D01*
X131508722Y-58984258D01*
X131576999Y-58964797D01*
X131644959Y-58985339D01*
X131690195Y-59037543D01*
X131706151Y-59071762D01*
X131706154Y-59071767D01*
X131708477Y-59076749D01*
X131839802Y-59264300D01*
X132001700Y-59426198D01*
X132006208Y-59429355D01*
X132006211Y-59429357D01*
X132084389Y-59484098D01*
X132189251Y-59557523D01*
X132194233Y-59559846D01*
X132194238Y-59559849D01*
X132343624Y-59629508D01*
X132396757Y-59654284D01*
X132402065Y-59655706D01*
X132402067Y-59655707D01*
X132612598Y-59712119D01*
X132612600Y-59712119D01*
X132617913Y-59713543D01*
X132846000Y-59733498D01*
X133074087Y-59713543D01*
X133079400Y-59712119D01*
X133079402Y-59712119D01*
X133289933Y-59655707D01*
X133289935Y-59655706D01*
X133295243Y-59654284D01*
X133348376Y-59629508D01*
X133497762Y-59559849D01*
X133497767Y-59559846D01*
X133502749Y-59557523D01*
X133607611Y-59484098D01*
X133685789Y-59429357D01*
X133685792Y-59429355D01*
X133690300Y-59426198D01*
X133852198Y-59264300D01*
X133983523Y-59076749D01*
X133985846Y-59071767D01*
X133985849Y-59071762D01*
X134001805Y-59037543D01*
X134048722Y-58984258D01*
X134116999Y-58964797D01*
X134184959Y-58985339D01*
X134230195Y-59037543D01*
X134246151Y-59071762D01*
X134246154Y-59071767D01*
X134248477Y-59076749D01*
X134379802Y-59264300D01*
X134541700Y-59426198D01*
X134546208Y-59429355D01*
X134546211Y-59429357D01*
X134624389Y-59484098D01*
X134729251Y-59557523D01*
X134734233Y-59559846D01*
X134734238Y-59559849D01*
X134883624Y-59629508D01*
X134936757Y-59654284D01*
X134942065Y-59655706D01*
X134942067Y-59655707D01*
X135152598Y-59712119D01*
X135152600Y-59712119D01*
X135157913Y-59713543D01*
X135386000Y-59733498D01*
X135614087Y-59713543D01*
X135619400Y-59712119D01*
X135619402Y-59712119D01*
X135829933Y-59655707D01*
X135829935Y-59655706D01*
X135835243Y-59654284D01*
X135888376Y-59629508D01*
X136037762Y-59559849D01*
X136037767Y-59559846D01*
X136042749Y-59557523D01*
X136147611Y-59484098D01*
X136225789Y-59429357D01*
X136225792Y-59429355D01*
X136230300Y-59426198D01*
X136392198Y-59264300D01*
X136523523Y-59076749D01*
X136525846Y-59071767D01*
X136525849Y-59071762D01*
X136542081Y-59036951D01*
X136588998Y-58983666D01*
X136657275Y-58964205D01*
X136725235Y-58984747D01*
X136770471Y-59036951D01*
X136786586Y-59071511D01*
X136792069Y-59081007D01*
X136917028Y-59259467D01*
X136924084Y-59267875D01*
X137078125Y-59421916D01*
X137086533Y-59428972D01*
X137264993Y-59553931D01*
X137274489Y-59559414D01*
X137471947Y-59651490D01*
X137482239Y-59655236D01*
X137654503Y-59701394D01*
X137668599Y-59701058D01*
X137672000Y-59693116D01*
X137672000Y-58292000D01*
X137692002Y-58223879D01*
X137745658Y-58177386D01*
X137798000Y-58166000D01*
X138054000Y-58166000D01*
X138122121Y-58186002D01*
X138168614Y-58239658D01*
X138180000Y-58292000D01*
X138180000Y-59687967D01*
X138183973Y-59701498D01*
X138192522Y-59702727D01*
X138369761Y-59655236D01*
X138380053Y-59651490D01*
X138577511Y-59559414D01*
X138587007Y-59553931D01*
X138765467Y-59428972D01*
X138773875Y-59421916D01*
X138927916Y-59267875D01*
X138934972Y-59259467D01*
X139059931Y-59081007D01*
X139065414Y-59071511D01*
X139081529Y-59036951D01*
X139128446Y-58983666D01*
X139196723Y-58964205D01*
X139264683Y-58984747D01*
X139309919Y-59036951D01*
X139326151Y-59071762D01*
X139326154Y-59071767D01*
X139328477Y-59076749D01*
X139459802Y-59264300D01*
X139621700Y-59426198D01*
X139626208Y-59429355D01*
X139626211Y-59429357D01*
X139704389Y-59484098D01*
X139809251Y-59557523D01*
X139814233Y-59559846D01*
X139814238Y-59559849D01*
X139963624Y-59629508D01*
X140016757Y-59654284D01*
X140022065Y-59655706D01*
X140022067Y-59655707D01*
X140232598Y-59712119D01*
X140232600Y-59712119D01*
X140237913Y-59713543D01*
X140466000Y-59733498D01*
X140694087Y-59713543D01*
X140699400Y-59712119D01*
X140699402Y-59712119D01*
X140909933Y-59655707D01*
X140909935Y-59655706D01*
X140915243Y-59654284D01*
X140968376Y-59629508D01*
X141117762Y-59559849D01*
X141117767Y-59559846D01*
X141122749Y-59557523D01*
X141227611Y-59484098D01*
X141305789Y-59429357D01*
X141305792Y-59429355D01*
X141310300Y-59426198D01*
X141472198Y-59264300D01*
X141603523Y-59076749D01*
X141605846Y-59071767D01*
X141605849Y-59071762D01*
X141621805Y-59037543D01*
X141668722Y-58984258D01*
X141736999Y-58964797D01*
X141804959Y-58985339D01*
X141850195Y-59037543D01*
X141866151Y-59071762D01*
X141866154Y-59071767D01*
X141868477Y-59076749D01*
X141999802Y-59264300D01*
X142161700Y-59426198D01*
X142166208Y-59429355D01*
X142166211Y-59429357D01*
X142318771Y-59536181D01*
X142363099Y-59591638D01*
X142372500Y-59639394D01*
X142372500Y-63054405D01*
X142352498Y-63122526D01*
X142335595Y-63143500D01*
X138479500Y-66999595D01*
X138417188Y-67033621D01*
X138390405Y-67036500D01*
X138334513Y-67036500D01*
X138328061Y-67037872D01*
X138328056Y-67037872D01*
X138241113Y-67056353D01*
X138147712Y-67076206D01*
X138141682Y-67078891D01*
X138141681Y-67078891D01*
X137979278Y-67151197D01*
X137979276Y-67151198D01*
X137973248Y-67153882D01*
X137818747Y-67266134D01*
X137690960Y-67408056D01*
X137595473Y-67573444D01*
X137536458Y-67755072D01*
X137516496Y-67945000D01*
X137536458Y-68134928D01*
X137595473Y-68316556D01*
X137690960Y-68481944D01*
X137818747Y-68623866D01*
X137973248Y-68736118D01*
X137979276Y-68738802D01*
X137979278Y-68738803D01*
X138141681Y-68811109D01*
X138147712Y-68813794D01*
X138241113Y-68833647D01*
X138328056Y-68852128D01*
X138328061Y-68852128D01*
X138334513Y-68853500D01*
X138525487Y-68853500D01*
X138531939Y-68852128D01*
X138531944Y-68852128D01*
X138618887Y-68833647D01*
X138712288Y-68813794D01*
X138718319Y-68811109D01*
X138880722Y-68738803D01*
X138880724Y-68738802D01*
X138886752Y-68736118D01*
X139041253Y-68623866D01*
X139169040Y-68481944D01*
X139264527Y-68316556D01*
X139323542Y-68134928D01*
X139340907Y-67969706D01*
X139367920Y-67904050D01*
X139377122Y-67893782D01*
X143398247Y-63872657D01*
X143406537Y-63865113D01*
X143413018Y-63861000D01*
X143459659Y-63811332D01*
X143462413Y-63808491D01*
X143482134Y-63788770D01*
X143484612Y-63785575D01*
X143492318Y-63776553D01*
X143517158Y-63750101D01*
X143522586Y-63744321D01*
X143532346Y-63726568D01*
X143543199Y-63710045D01*
X143550753Y-63700306D01*
X143555613Y-63694041D01*
X143573176Y-63653457D01*
X143578383Y-63642827D01*
X143599695Y-63604060D01*
X143601666Y-63596383D01*
X143601668Y-63596378D01*
X143604732Y-63584442D01*
X143611138Y-63565730D01*
X143616033Y-63554419D01*
X143619181Y-63547145D01*
X143620421Y-63539317D01*
X143620423Y-63539310D01*
X143626099Y-63503476D01*
X143628505Y-63491856D01*
X143637528Y-63456711D01*
X143637528Y-63456710D01*
X143639500Y-63449030D01*
X143639500Y-63428776D01*
X143641051Y-63409065D01*
X143642980Y-63396886D01*
X143644220Y-63389057D01*
X143640059Y-63345038D01*
X143639500Y-63333181D01*
X143639500Y-59639394D01*
X143659502Y-59571273D01*
X143693229Y-59536181D01*
X143845789Y-59429357D01*
X143845792Y-59429355D01*
X143850300Y-59426198D01*
X144012198Y-59264300D01*
X144143523Y-59076749D01*
X144145846Y-59071767D01*
X144145849Y-59071762D01*
X144161805Y-59037543D01*
X144208722Y-58984258D01*
X144276999Y-58964797D01*
X144344959Y-58985339D01*
X144390195Y-59037543D01*
X144406151Y-59071762D01*
X144406154Y-59071767D01*
X144408477Y-59076749D01*
X144539802Y-59264300D01*
X144701700Y-59426198D01*
X144706208Y-59429355D01*
X144706211Y-59429357D01*
X144784389Y-59484098D01*
X144889251Y-59557523D01*
X144894233Y-59559846D01*
X144894238Y-59559849D01*
X145043624Y-59629508D01*
X145096757Y-59654284D01*
X145102065Y-59655706D01*
X145102067Y-59655707D01*
X145312598Y-59712119D01*
X145312600Y-59712119D01*
X145317913Y-59713543D01*
X145546000Y-59733498D01*
X145774087Y-59713543D01*
X145779400Y-59712119D01*
X145779402Y-59712119D01*
X145989933Y-59655707D01*
X145989935Y-59655706D01*
X145995243Y-59654284D01*
X146048376Y-59629508D01*
X146197762Y-59559849D01*
X146197767Y-59559846D01*
X146202749Y-59557523D01*
X146307611Y-59484098D01*
X146385789Y-59429357D01*
X146385792Y-59429355D01*
X146390300Y-59426198D01*
X146552198Y-59264300D01*
X146683523Y-59076749D01*
X146685846Y-59071767D01*
X146685849Y-59071762D01*
X146701805Y-59037543D01*
X146748722Y-58984258D01*
X146816999Y-58964797D01*
X146884959Y-58985339D01*
X146930195Y-59037543D01*
X146946151Y-59071762D01*
X146946154Y-59071767D01*
X146948477Y-59076749D01*
X147079802Y-59264300D01*
X147241700Y-59426198D01*
X147246208Y-59429355D01*
X147246211Y-59429357D01*
X147324389Y-59484098D01*
X147429251Y-59557523D01*
X147434233Y-59559846D01*
X147434238Y-59559849D01*
X147583624Y-59629508D01*
X147636757Y-59654284D01*
X147642065Y-59655706D01*
X147642067Y-59655707D01*
X147852598Y-59712119D01*
X147852600Y-59712119D01*
X147857913Y-59713543D01*
X148086000Y-59733498D01*
X148314087Y-59713543D01*
X148319400Y-59712119D01*
X148319402Y-59712119D01*
X148529933Y-59655707D01*
X148529935Y-59655706D01*
X148535243Y-59654284D01*
X148588376Y-59629508D01*
X148737762Y-59559849D01*
X148737767Y-59559846D01*
X148742749Y-59557523D01*
X148847611Y-59484098D01*
X148925789Y-59429357D01*
X148925792Y-59429355D01*
X148930300Y-59426198D01*
X149092198Y-59264300D01*
X149223523Y-59076749D01*
X149225846Y-59071767D01*
X149225849Y-59071762D01*
X149241805Y-59037543D01*
X149288722Y-58984258D01*
X149356999Y-58964797D01*
X149424959Y-58985339D01*
X149470195Y-59037543D01*
X149486151Y-59071762D01*
X149486154Y-59071767D01*
X149488477Y-59076749D01*
X149619802Y-59264300D01*
X149781700Y-59426198D01*
X149786208Y-59429355D01*
X149786211Y-59429357D01*
X149864389Y-59484098D01*
X149969251Y-59557523D01*
X149974233Y-59559846D01*
X149974238Y-59559849D01*
X150123624Y-59629508D01*
X150176757Y-59654284D01*
X150182065Y-59655706D01*
X150182067Y-59655707D01*
X150392598Y-59712119D01*
X150392600Y-59712119D01*
X150397913Y-59713543D01*
X150626000Y-59733498D01*
X150854087Y-59713543D01*
X150859400Y-59712119D01*
X150859402Y-59712119D01*
X151069933Y-59655707D01*
X151069935Y-59655706D01*
X151075243Y-59654284D01*
X151128376Y-59629508D01*
X151277762Y-59559849D01*
X151277767Y-59559846D01*
X151282749Y-59557523D01*
X151387611Y-59484098D01*
X151465789Y-59429357D01*
X151465792Y-59429355D01*
X151470300Y-59426198D01*
X151632198Y-59264300D01*
X151763523Y-59076749D01*
X151765846Y-59071767D01*
X151765849Y-59071762D01*
X151781805Y-59037543D01*
X151828722Y-58984258D01*
X151896999Y-58964797D01*
X151964959Y-58985339D01*
X152010195Y-59037543D01*
X152026151Y-59071762D01*
X152026154Y-59071767D01*
X152028477Y-59076749D01*
X152159802Y-59264300D01*
X152321700Y-59426198D01*
X152326208Y-59429355D01*
X152326211Y-59429357D01*
X152404389Y-59484098D01*
X152509251Y-59557523D01*
X152514233Y-59559846D01*
X152514238Y-59559849D01*
X152663624Y-59629508D01*
X152716757Y-59654284D01*
X152722065Y-59655706D01*
X152722067Y-59655707D01*
X152932598Y-59712119D01*
X152932600Y-59712119D01*
X152937913Y-59713543D01*
X153166000Y-59733498D01*
X153394087Y-59713543D01*
X153399400Y-59712119D01*
X153399402Y-59712119D01*
X153609933Y-59655707D01*
X153609935Y-59655706D01*
X153615243Y-59654284D01*
X153668376Y-59629508D01*
X153817762Y-59559849D01*
X153817767Y-59559846D01*
X153822749Y-59557523D01*
X153927611Y-59484098D01*
X154005789Y-59429357D01*
X154005792Y-59429355D01*
X154010300Y-59426198D01*
X154172198Y-59264300D01*
X154303523Y-59076749D01*
X154305846Y-59071767D01*
X154305849Y-59071762D01*
X154397961Y-58874225D01*
X154397961Y-58874224D01*
X154400284Y-58869243D01*
X154434074Y-58743140D01*
X154458119Y-58653402D01*
X154458119Y-58653400D01*
X154459543Y-58648087D01*
X154479498Y-58420000D01*
X154459543Y-58191913D01*
X154457959Y-58186002D01*
X154401707Y-57976067D01*
X154401706Y-57976065D01*
X154400284Y-57970757D01*
X154397961Y-57965775D01*
X154305849Y-57768238D01*
X154305846Y-57768233D01*
X154303523Y-57763251D01*
X154172198Y-57575700D01*
X154010300Y-57413802D01*
X154005792Y-57410645D01*
X154005789Y-57410643D01*
X153960902Y-57379213D01*
X153916574Y-57323756D01*
X153909265Y-57253136D01*
X153941296Y-57189776D01*
X154002497Y-57153791D01*
X154033173Y-57150000D01*
X156358827Y-57150000D01*
X156426948Y-57170002D01*
X156473441Y-57223658D01*
X156483545Y-57293932D01*
X156454051Y-57358512D01*
X156431098Y-57379213D01*
X156386211Y-57410643D01*
X156386208Y-57410645D01*
X156381700Y-57413802D01*
X156219802Y-57575700D01*
X156088477Y-57763251D01*
X156086154Y-57768233D01*
X156086151Y-57768238D01*
X155994039Y-57965775D01*
X155991716Y-57970757D01*
X155990294Y-57976065D01*
X155990293Y-57976067D01*
X155934041Y-58186002D01*
X155932457Y-58191913D01*
X155912502Y-58420000D01*
X155932457Y-58648087D01*
X155933881Y-58653400D01*
X155933881Y-58653402D01*
X155957927Y-58743140D01*
X155991716Y-58869243D01*
X155994039Y-58874224D01*
X155994039Y-58874225D01*
X156086151Y-59071762D01*
X156086154Y-59071767D01*
X156088477Y-59076749D01*
X156219802Y-59264300D01*
X156381700Y-59426198D01*
X156386208Y-59429355D01*
X156386211Y-59429357D01*
X156464389Y-59484098D01*
X156569251Y-59557523D01*
X156574233Y-59559846D01*
X156574238Y-59559849D01*
X156723624Y-59629508D01*
X156776757Y-59654284D01*
X156782065Y-59655706D01*
X156782067Y-59655707D01*
X156992598Y-59712119D01*
X156992600Y-59712119D01*
X156997913Y-59713543D01*
X157226000Y-59733498D01*
X157454087Y-59713543D01*
X157459400Y-59712119D01*
X157459402Y-59712119D01*
X157669933Y-59655707D01*
X157669935Y-59655706D01*
X157675243Y-59654284D01*
X157728376Y-59629508D01*
X157877762Y-59559849D01*
X157877767Y-59559846D01*
X157882749Y-59557523D01*
X157987611Y-59484098D01*
X158065789Y-59429357D01*
X158065792Y-59429355D01*
X158070300Y-59426198D01*
X158232198Y-59264300D01*
X158363523Y-59076749D01*
X158365846Y-59071767D01*
X158365849Y-59071762D01*
X158381805Y-59037543D01*
X158428722Y-58984258D01*
X158496999Y-58964797D01*
X158564959Y-58985339D01*
X158610195Y-59037543D01*
X158626151Y-59071762D01*
X158626154Y-59071767D01*
X158628477Y-59076749D01*
X158759802Y-59264300D01*
X158921700Y-59426198D01*
X158926208Y-59429355D01*
X158926211Y-59429357D01*
X159004389Y-59484098D01*
X159109251Y-59557523D01*
X159114233Y-59559846D01*
X159114238Y-59559849D01*
X159263624Y-59629508D01*
X159316757Y-59654284D01*
X159322065Y-59655706D01*
X159322067Y-59655707D01*
X159532598Y-59712119D01*
X159532600Y-59712119D01*
X159537913Y-59713543D01*
X159766000Y-59733498D01*
X159994087Y-59713543D01*
X159999400Y-59712119D01*
X159999402Y-59712119D01*
X160209933Y-59655707D01*
X160209935Y-59655706D01*
X160215243Y-59654284D01*
X160268376Y-59629508D01*
X160417762Y-59559849D01*
X160417767Y-59559846D01*
X160422749Y-59557523D01*
X160527611Y-59484098D01*
X160605789Y-59429357D01*
X160605792Y-59429355D01*
X160610300Y-59426198D01*
X160772198Y-59264300D01*
X160903523Y-59076749D01*
X160905846Y-59071767D01*
X160905849Y-59071762D01*
X160921805Y-59037543D01*
X160968722Y-58984258D01*
X161036999Y-58964797D01*
X161104959Y-58985339D01*
X161150195Y-59037543D01*
X161166151Y-59071762D01*
X161166154Y-59071767D01*
X161168477Y-59076749D01*
X161299802Y-59264300D01*
X161461700Y-59426198D01*
X161466208Y-59429355D01*
X161466211Y-59429357D01*
X161544389Y-59484098D01*
X161649251Y-59557523D01*
X161654233Y-59559846D01*
X161654238Y-59559849D01*
X161803624Y-59629508D01*
X161856757Y-59654284D01*
X161862065Y-59655706D01*
X161862067Y-59655707D01*
X162072598Y-59712119D01*
X162072600Y-59712119D01*
X162077913Y-59713543D01*
X162306000Y-59733498D01*
X162534087Y-59713543D01*
X162539400Y-59712119D01*
X162539402Y-59712119D01*
X162749933Y-59655707D01*
X162749935Y-59655706D01*
X162755243Y-59654284D01*
X162808376Y-59629508D01*
X162957762Y-59559849D01*
X162957767Y-59559846D01*
X162962749Y-59557523D01*
X163067611Y-59484098D01*
X163145789Y-59429357D01*
X163145792Y-59429355D01*
X163150300Y-59426198D01*
X163312198Y-59264300D01*
X163443523Y-59076749D01*
X163445846Y-59071767D01*
X163445849Y-59071762D01*
X163461805Y-59037543D01*
X163508722Y-58984258D01*
X163576999Y-58964797D01*
X163644959Y-58985339D01*
X163690195Y-59037543D01*
X163706151Y-59071762D01*
X163706154Y-59071767D01*
X163708477Y-59076749D01*
X163839802Y-59264300D01*
X164001700Y-59426198D01*
X164006208Y-59429355D01*
X164006211Y-59429357D01*
X164084389Y-59484098D01*
X164189251Y-59557523D01*
X164194233Y-59559846D01*
X164194238Y-59559849D01*
X164343624Y-59629508D01*
X164396757Y-59654284D01*
X164402065Y-59655706D01*
X164402067Y-59655707D01*
X164612598Y-59712119D01*
X164612600Y-59712119D01*
X164617913Y-59713543D01*
X164846000Y-59733498D01*
X165074087Y-59713543D01*
X165079400Y-59712119D01*
X165079402Y-59712119D01*
X165289933Y-59655707D01*
X165289935Y-59655706D01*
X165295243Y-59654284D01*
X165348376Y-59629508D01*
X165497762Y-59559849D01*
X165497767Y-59559846D01*
X165502749Y-59557523D01*
X165607611Y-59484098D01*
X165685789Y-59429357D01*
X165685792Y-59429355D01*
X165690300Y-59426198D01*
X165852198Y-59264300D01*
X165983523Y-59076749D01*
X165985846Y-59071767D01*
X165985849Y-59071762D01*
X166001805Y-59037543D01*
X166048722Y-58984258D01*
X166116999Y-58964797D01*
X166184959Y-58985339D01*
X166230195Y-59037543D01*
X166246151Y-59071762D01*
X166246154Y-59071767D01*
X166248477Y-59076749D01*
X166379802Y-59264300D01*
X166541700Y-59426198D01*
X166546208Y-59429355D01*
X166546211Y-59429357D01*
X166624389Y-59484098D01*
X166729251Y-59557523D01*
X166734233Y-59559846D01*
X166734238Y-59559849D01*
X166883624Y-59629508D01*
X166936757Y-59654284D01*
X166942065Y-59655706D01*
X166942067Y-59655707D01*
X167152598Y-59712119D01*
X167152600Y-59712119D01*
X167157913Y-59713543D01*
X167386000Y-59733498D01*
X167614087Y-59713543D01*
X167619400Y-59712119D01*
X167619402Y-59712119D01*
X167829933Y-59655707D01*
X167829935Y-59655706D01*
X167835243Y-59654284D01*
X167888376Y-59629508D01*
X168037762Y-59559849D01*
X168037767Y-59559846D01*
X168042749Y-59557523D01*
X168147611Y-59484098D01*
X168225789Y-59429357D01*
X168225792Y-59429355D01*
X168230300Y-59426198D01*
X168392198Y-59264300D01*
X168523523Y-59076749D01*
X168525846Y-59071767D01*
X168525849Y-59071762D01*
X168541805Y-59037543D01*
X168588722Y-58984258D01*
X168656999Y-58964797D01*
X168724959Y-58985339D01*
X168770195Y-59037543D01*
X168786151Y-59071762D01*
X168786154Y-59071767D01*
X168788477Y-59076749D01*
X168919802Y-59264300D01*
X169081700Y-59426198D01*
X169086208Y-59429355D01*
X169086211Y-59429357D01*
X169164389Y-59484098D01*
X169269251Y-59557523D01*
X169274233Y-59559846D01*
X169274238Y-59559849D01*
X169423624Y-59629508D01*
X169476757Y-59654284D01*
X169482065Y-59655706D01*
X169482067Y-59655707D01*
X169692598Y-59712119D01*
X169692600Y-59712119D01*
X169697913Y-59713543D01*
X169926000Y-59733498D01*
X170154087Y-59713543D01*
X170159400Y-59712119D01*
X170159402Y-59712119D01*
X170369933Y-59655707D01*
X170369935Y-59655706D01*
X170375243Y-59654284D01*
X170428376Y-59629508D01*
X170577762Y-59559849D01*
X170577767Y-59559846D01*
X170582749Y-59557523D01*
X170687611Y-59484098D01*
X170765789Y-59429357D01*
X170765792Y-59429355D01*
X170770300Y-59426198D01*
X170932198Y-59264300D01*
X171063523Y-59076749D01*
X171065846Y-59071767D01*
X171065849Y-59071762D01*
X171081805Y-59037543D01*
X171128722Y-58984258D01*
X171196999Y-58964797D01*
X171264959Y-58985339D01*
X171310195Y-59037543D01*
X171326151Y-59071762D01*
X171326154Y-59071767D01*
X171328477Y-59076749D01*
X171459802Y-59264300D01*
X171621700Y-59426198D01*
X171626208Y-59429355D01*
X171626211Y-59429357D01*
X171704389Y-59484098D01*
X171809251Y-59557523D01*
X171814233Y-59559846D01*
X171814238Y-59559849D01*
X171963624Y-59629508D01*
X172016757Y-59654284D01*
X172022065Y-59655706D01*
X172022067Y-59655707D01*
X172232598Y-59712119D01*
X172232600Y-59712119D01*
X172237913Y-59713543D01*
X172466000Y-59733498D01*
X172694087Y-59713543D01*
X172699400Y-59712119D01*
X172699402Y-59712119D01*
X172909933Y-59655707D01*
X172909935Y-59655706D01*
X172915243Y-59654284D01*
X172968376Y-59629508D01*
X173117762Y-59559849D01*
X173117767Y-59559846D01*
X173122749Y-59557523D01*
X173227611Y-59484098D01*
X173305789Y-59429357D01*
X173305792Y-59429355D01*
X173310300Y-59426198D01*
X173472198Y-59264300D01*
X173603523Y-59076749D01*
X173605846Y-59071767D01*
X173605849Y-59071762D01*
X173621805Y-59037543D01*
X173668722Y-58984258D01*
X173736999Y-58964797D01*
X173804959Y-58985339D01*
X173850195Y-59037543D01*
X173866151Y-59071762D01*
X173866154Y-59071767D01*
X173868477Y-59076749D01*
X173999802Y-59264300D01*
X174161700Y-59426198D01*
X174166208Y-59429355D01*
X174166211Y-59429357D01*
X174244389Y-59484098D01*
X174349251Y-59557523D01*
X174354233Y-59559846D01*
X174354238Y-59559849D01*
X174503624Y-59629508D01*
X174556757Y-59654284D01*
X174562065Y-59655706D01*
X174562067Y-59655707D01*
X174772598Y-59712119D01*
X174772600Y-59712119D01*
X174777913Y-59713543D01*
X175006000Y-59733498D01*
X175234087Y-59713543D01*
X175239400Y-59712119D01*
X175239402Y-59712119D01*
X175449933Y-59655707D01*
X175449935Y-59655706D01*
X175455243Y-59654284D01*
X175508376Y-59629508D01*
X175657762Y-59559849D01*
X175657767Y-59559846D01*
X175662749Y-59557523D01*
X175767611Y-59484098D01*
X175845789Y-59429357D01*
X175845792Y-59429355D01*
X175850300Y-59426198D01*
X176012198Y-59264300D01*
X176143523Y-59076749D01*
X176145846Y-59071767D01*
X176145849Y-59071762D01*
X176237961Y-58874225D01*
X176237961Y-58874224D01*
X176240284Y-58869243D01*
X176274074Y-58743140D01*
X176298119Y-58653402D01*
X176298119Y-58653400D01*
X176299543Y-58648087D01*
X176319498Y-58420000D01*
X176299543Y-58191913D01*
X176297959Y-58186002D01*
X176241707Y-57976067D01*
X176241706Y-57976065D01*
X176240284Y-57970757D01*
X176237961Y-57965775D01*
X176145849Y-57768238D01*
X176145846Y-57768233D01*
X176143523Y-57763251D01*
X176012198Y-57575700D01*
X175850300Y-57413802D01*
X175845792Y-57410645D01*
X175845789Y-57410643D01*
X175800902Y-57379213D01*
X175756574Y-57323756D01*
X175749265Y-57253136D01*
X175781296Y-57189776D01*
X175842497Y-57153791D01*
X175873173Y-57150000D01*
X176477810Y-57150000D01*
X176545931Y-57170002D01*
X176566905Y-57186905D01*
X179033095Y-59653095D01*
X179067121Y-59715407D01*
X179070000Y-59742190D01*
X179070000Y-71912961D01*
X179049998Y-71981082D01*
X178996342Y-72027575D01*
X178926068Y-72037679D01*
X178870474Y-72015283D01*
X178663172Y-71866321D01*
X178663171Y-71866320D01*
X178659683Y-71863814D01*
X178637843Y-71852250D01*
X178614654Y-71839972D01*
X178405608Y-71729288D01*
X178135627Y-71630489D01*
X177854736Y-71569245D01*
X177823685Y-71566801D01*
X177631718Y-71551693D01*
X177631709Y-71551693D01*
X177629261Y-71551500D01*
X177473729Y-71551500D01*
X177471593Y-71551646D01*
X177471582Y-71551646D01*
X177263452Y-71565835D01*
X177263446Y-71565836D01*
X177259175Y-71566127D01*
X177254980Y-71566996D01*
X177254978Y-71566996D01*
X177118417Y-71595276D01*
X176977658Y-71624426D01*
X176706657Y-71720393D01*
X176451188Y-71852250D01*
X176447687Y-71854711D01*
X176447683Y-71854713D01*
X176437594Y-71861804D01*
X176215977Y-72017559D01*
X176005378Y-72213260D01*
X175823287Y-72435732D01*
X175673073Y-72680858D01*
X175557517Y-72944102D01*
X175478756Y-73220594D01*
X175438249Y-73505216D01*
X175436743Y-73792703D01*
X175474268Y-74077734D01*
X175550129Y-74355036D01*
X175662923Y-74619476D01*
X175810561Y-74866161D01*
X175990313Y-75090528D01*
X176007397Y-75106740D01*
X176192905Y-75282780D01*
X176198851Y-75288423D01*
X176432317Y-75456186D01*
X176436112Y-75458195D01*
X176436113Y-75458196D01*
X176457869Y-75469715D01*
X176686392Y-75590712D01*
X176710699Y-75599607D01*
X176929271Y-75679593D01*
X176956373Y-75689511D01*
X177237264Y-75750755D01*
X177265841Y-75753004D01*
X177460282Y-75768307D01*
X177460291Y-75768307D01*
X177462739Y-75768500D01*
X177618271Y-75768500D01*
X177620407Y-75768354D01*
X177620418Y-75768354D01*
X177828548Y-75754165D01*
X177828554Y-75754164D01*
X177832825Y-75753873D01*
X177837020Y-75753004D01*
X177837022Y-75753004D01*
X177989671Y-75721392D01*
X178114342Y-75695574D01*
X178385343Y-75599607D01*
X178640812Y-75467750D01*
X178644313Y-75465289D01*
X178644317Y-75465287D01*
X178754158Y-75388089D01*
X178871550Y-75305585D01*
X178938783Y-75282780D01*
X179007674Y-75299945D01*
X179056348Y-75351629D01*
X179070000Y-75408672D01*
X179070000Y-99852961D01*
X179049998Y-99921082D01*
X178996342Y-99967575D01*
X178926068Y-99977679D01*
X178870474Y-99955283D01*
X178663172Y-99806321D01*
X178663171Y-99806320D01*
X178659683Y-99803814D01*
X178637843Y-99792250D01*
X178614654Y-99779972D01*
X178405608Y-99669288D01*
X178135627Y-99570489D01*
X177854736Y-99509245D01*
X177823685Y-99506801D01*
X177631718Y-99491693D01*
X177631709Y-99491693D01*
X177629261Y-99491500D01*
X177473729Y-99491500D01*
X177471593Y-99491646D01*
X177471582Y-99491646D01*
X177263452Y-99505835D01*
X177263446Y-99505836D01*
X177259175Y-99506127D01*
X177254980Y-99506996D01*
X177254978Y-99506996D01*
X177118416Y-99535277D01*
X176977658Y-99564426D01*
X176706657Y-99660393D01*
X176451188Y-99792250D01*
X176447687Y-99794711D01*
X176447683Y-99794713D01*
X176437594Y-99801804D01*
X176215977Y-99957559D01*
X176005378Y-100153260D01*
X175823287Y-100375732D01*
X175673073Y-100620858D01*
X175557517Y-100884102D01*
X175478756Y-101160594D01*
X175438249Y-101445216D01*
X175436743Y-101732703D01*
X175474268Y-102017734D01*
X175550129Y-102295036D01*
X175662923Y-102559476D01*
X175810561Y-102806161D01*
X175990313Y-103030528D01*
X176007397Y-103046740D01*
X176192905Y-103222780D01*
X176198851Y-103228423D01*
X176432317Y-103396186D01*
X176436112Y-103398195D01*
X176436113Y-103398196D01*
X176457869Y-103409715D01*
X176686392Y-103530712D01*
X176956373Y-103629511D01*
X177237264Y-103690755D01*
X177265841Y-103693004D01*
X177460282Y-103708307D01*
X177460291Y-103708307D01*
X177462739Y-103708500D01*
X177618271Y-103708500D01*
X177620407Y-103708354D01*
X177620418Y-103708354D01*
X177828548Y-103694165D01*
X177828554Y-103694164D01*
X177832825Y-103693873D01*
X177837020Y-103693004D01*
X177837022Y-103693004D01*
X177973584Y-103664723D01*
X178114342Y-103635574D01*
X178385343Y-103539607D01*
X178640812Y-103407750D01*
X178644313Y-103405289D01*
X178644317Y-103405287D01*
X178754158Y-103328089D01*
X178871550Y-103245585D01*
X178938783Y-103222780D01*
X179007674Y-103239945D01*
X179056348Y-103291629D01*
X179070000Y-103348672D01*
X179070000Y-105617725D01*
X179049998Y-105685846D01*
X179040051Y-105699273D01*
X176894122Y-108226701D01*
X176822065Y-108311568D01*
X176762728Y-108350550D01*
X176725190Y-108356014D01*
X166261419Y-108287399D01*
X157414775Y-108229389D01*
X157346788Y-108208941D01*
X157300648Y-108154982D01*
X157291005Y-108084643D01*
X157320921Y-108020257D01*
X157380897Y-107982266D01*
X157404620Y-107977872D01*
X157448595Y-107974024D01*
X157448601Y-107974023D01*
X157454087Y-107973543D01*
X157459400Y-107972119D01*
X157459402Y-107972119D01*
X157669933Y-107915707D01*
X157669935Y-107915706D01*
X157675243Y-107914284D01*
X157681992Y-107911137D01*
X157877762Y-107819849D01*
X157877767Y-107819846D01*
X157882749Y-107817523D01*
X158024458Y-107718297D01*
X158065789Y-107689357D01*
X158065792Y-107689355D01*
X158070300Y-107686198D01*
X158232198Y-107524300D01*
X158363523Y-107336749D01*
X158365846Y-107331767D01*
X158365849Y-107331762D01*
X158457961Y-107134225D01*
X158457961Y-107134224D01*
X158460284Y-107129243D01*
X158515651Y-106922614D01*
X158518119Y-106913402D01*
X158518119Y-106913400D01*
X158519543Y-106908087D01*
X158539498Y-106680000D01*
X160992502Y-106680000D01*
X161012457Y-106908087D01*
X161013881Y-106913400D01*
X161013881Y-106913402D01*
X161016350Y-106922614D01*
X161071716Y-107129243D01*
X161074039Y-107134224D01*
X161074039Y-107134225D01*
X161166151Y-107331762D01*
X161166154Y-107331767D01*
X161168477Y-107336749D01*
X161299802Y-107524300D01*
X161461700Y-107686198D01*
X161466208Y-107689355D01*
X161466211Y-107689357D01*
X161507542Y-107718297D01*
X161649251Y-107817523D01*
X161654233Y-107819846D01*
X161654238Y-107819849D01*
X161850008Y-107911137D01*
X161856757Y-107914284D01*
X161862065Y-107915706D01*
X161862067Y-107915707D01*
X162072598Y-107972119D01*
X162072600Y-107972119D01*
X162077913Y-107973543D01*
X162306000Y-107993498D01*
X162534087Y-107973543D01*
X162539400Y-107972119D01*
X162539402Y-107972119D01*
X162749933Y-107915707D01*
X162749935Y-107915706D01*
X162755243Y-107914284D01*
X162761992Y-107911137D01*
X162957762Y-107819849D01*
X162957767Y-107819846D01*
X162962749Y-107817523D01*
X163104458Y-107718297D01*
X163145789Y-107689357D01*
X163145792Y-107689355D01*
X163150300Y-107686198D01*
X163312198Y-107524300D01*
X163443523Y-107336749D01*
X163445846Y-107331767D01*
X163445849Y-107331762D01*
X163461805Y-107297543D01*
X163508722Y-107244258D01*
X163576999Y-107224797D01*
X163644959Y-107245339D01*
X163690195Y-107297543D01*
X163706151Y-107331762D01*
X163706154Y-107331767D01*
X163708477Y-107336749D01*
X163839802Y-107524300D01*
X164001700Y-107686198D01*
X164006208Y-107689355D01*
X164006211Y-107689357D01*
X164047542Y-107718297D01*
X164189251Y-107817523D01*
X164194233Y-107819846D01*
X164194238Y-107819849D01*
X164390008Y-107911137D01*
X164396757Y-107914284D01*
X164402065Y-107915706D01*
X164402067Y-107915707D01*
X164612598Y-107972119D01*
X164612600Y-107972119D01*
X164617913Y-107973543D01*
X164846000Y-107993498D01*
X165074087Y-107973543D01*
X165079400Y-107972119D01*
X165079402Y-107972119D01*
X165289933Y-107915707D01*
X165289935Y-107915706D01*
X165295243Y-107914284D01*
X165301992Y-107911137D01*
X165497762Y-107819849D01*
X165497767Y-107819846D01*
X165502749Y-107817523D01*
X165644458Y-107718297D01*
X165685789Y-107689357D01*
X165685792Y-107689355D01*
X165690300Y-107686198D01*
X165852198Y-107524300D01*
X165983523Y-107336749D01*
X165985846Y-107331767D01*
X165985849Y-107331762D01*
X166001805Y-107297543D01*
X166048722Y-107244258D01*
X166116999Y-107224797D01*
X166184959Y-107245339D01*
X166230195Y-107297543D01*
X166246151Y-107331762D01*
X166246154Y-107331767D01*
X166248477Y-107336749D01*
X166379802Y-107524300D01*
X166541700Y-107686198D01*
X166546208Y-107689355D01*
X166546211Y-107689357D01*
X166587542Y-107718297D01*
X166729251Y-107817523D01*
X166734233Y-107819846D01*
X166734238Y-107819849D01*
X166930008Y-107911137D01*
X166936757Y-107914284D01*
X166942065Y-107915706D01*
X166942067Y-107915707D01*
X167152598Y-107972119D01*
X167152600Y-107972119D01*
X167157913Y-107973543D01*
X167386000Y-107993498D01*
X167614087Y-107973543D01*
X167619400Y-107972119D01*
X167619402Y-107972119D01*
X167829933Y-107915707D01*
X167829935Y-107915706D01*
X167835243Y-107914284D01*
X167841992Y-107911137D01*
X168037762Y-107819849D01*
X168037767Y-107819846D01*
X168042749Y-107817523D01*
X168184458Y-107718297D01*
X168225789Y-107689357D01*
X168225792Y-107689355D01*
X168230300Y-107686198D01*
X168392198Y-107524300D01*
X168523523Y-107336749D01*
X168525846Y-107331767D01*
X168525849Y-107331762D01*
X168541805Y-107297543D01*
X168588722Y-107244258D01*
X168656999Y-107224797D01*
X168724959Y-107245339D01*
X168770195Y-107297543D01*
X168786151Y-107331762D01*
X168786154Y-107331767D01*
X168788477Y-107336749D01*
X168919802Y-107524300D01*
X169081700Y-107686198D01*
X169086208Y-107689355D01*
X169086211Y-107689357D01*
X169127542Y-107718297D01*
X169269251Y-107817523D01*
X169274233Y-107819846D01*
X169274238Y-107819849D01*
X169470008Y-107911137D01*
X169476757Y-107914284D01*
X169482065Y-107915706D01*
X169482067Y-107915707D01*
X169692598Y-107972119D01*
X169692600Y-107972119D01*
X169697913Y-107973543D01*
X169926000Y-107993498D01*
X170154087Y-107973543D01*
X170159400Y-107972119D01*
X170159402Y-107972119D01*
X170369933Y-107915707D01*
X170369935Y-107915706D01*
X170375243Y-107914284D01*
X170381992Y-107911137D01*
X170577762Y-107819849D01*
X170577767Y-107819846D01*
X170582749Y-107817523D01*
X170724458Y-107718297D01*
X170765789Y-107689357D01*
X170765792Y-107689355D01*
X170770300Y-107686198D01*
X170932198Y-107524300D01*
X171063523Y-107336749D01*
X171065846Y-107331767D01*
X171065849Y-107331762D01*
X171081805Y-107297543D01*
X171128722Y-107244258D01*
X171196999Y-107224797D01*
X171264959Y-107245339D01*
X171310195Y-107297543D01*
X171326151Y-107331762D01*
X171326154Y-107331767D01*
X171328477Y-107336749D01*
X171459802Y-107524300D01*
X171621700Y-107686198D01*
X171626208Y-107689355D01*
X171626211Y-107689357D01*
X171667542Y-107718297D01*
X171809251Y-107817523D01*
X171814233Y-107819846D01*
X171814238Y-107819849D01*
X172010008Y-107911137D01*
X172016757Y-107914284D01*
X172022065Y-107915706D01*
X172022067Y-107915707D01*
X172232598Y-107972119D01*
X172232600Y-107972119D01*
X172237913Y-107973543D01*
X172466000Y-107993498D01*
X172694087Y-107973543D01*
X172699400Y-107972119D01*
X172699402Y-107972119D01*
X172909933Y-107915707D01*
X172909935Y-107915706D01*
X172915243Y-107914284D01*
X172921992Y-107911137D01*
X173117762Y-107819849D01*
X173117767Y-107819846D01*
X173122749Y-107817523D01*
X173264458Y-107718297D01*
X173305789Y-107689357D01*
X173305792Y-107689355D01*
X173310300Y-107686198D01*
X173472198Y-107524300D01*
X173603523Y-107336749D01*
X173605846Y-107331767D01*
X173605849Y-107331762D01*
X173621805Y-107297543D01*
X173668722Y-107244258D01*
X173736999Y-107224797D01*
X173804959Y-107245339D01*
X173850195Y-107297543D01*
X173866151Y-107331762D01*
X173866154Y-107331767D01*
X173868477Y-107336749D01*
X173999802Y-107524300D01*
X174161700Y-107686198D01*
X174166208Y-107689355D01*
X174166211Y-107689357D01*
X174207542Y-107718297D01*
X174349251Y-107817523D01*
X174354233Y-107819846D01*
X174354238Y-107819849D01*
X174550008Y-107911137D01*
X174556757Y-107914284D01*
X174562065Y-107915706D01*
X174562067Y-107915707D01*
X174772598Y-107972119D01*
X174772600Y-107972119D01*
X174777913Y-107973543D01*
X175006000Y-107993498D01*
X175234087Y-107973543D01*
X175239400Y-107972119D01*
X175239402Y-107972119D01*
X175449933Y-107915707D01*
X175449935Y-107915706D01*
X175455243Y-107914284D01*
X175461992Y-107911137D01*
X175657762Y-107819849D01*
X175657767Y-107819846D01*
X175662749Y-107817523D01*
X175804458Y-107718297D01*
X175845789Y-107689357D01*
X175845792Y-107689355D01*
X175850300Y-107686198D01*
X176012198Y-107524300D01*
X176143523Y-107336749D01*
X176145846Y-107331767D01*
X176145849Y-107331762D01*
X176237961Y-107134225D01*
X176237961Y-107134224D01*
X176240284Y-107129243D01*
X176295651Y-106922614D01*
X176298119Y-106913402D01*
X176298119Y-106913400D01*
X176299543Y-106908087D01*
X176319498Y-106680000D01*
X176299543Y-106451913D01*
X176291028Y-106420135D01*
X176241707Y-106236067D01*
X176241706Y-106236065D01*
X176240284Y-106230757D01*
X176186148Y-106114661D01*
X176145849Y-106028238D01*
X176145846Y-106028233D01*
X176143523Y-106023251D01*
X176012198Y-105835700D01*
X175850300Y-105673802D01*
X175845792Y-105670645D01*
X175845789Y-105670643D01*
X175767611Y-105615902D01*
X175662749Y-105542477D01*
X175657767Y-105540154D01*
X175657762Y-105540151D01*
X175460225Y-105448039D01*
X175460224Y-105448039D01*
X175455243Y-105445716D01*
X175449935Y-105444294D01*
X175449933Y-105444293D01*
X175239402Y-105387881D01*
X175239400Y-105387881D01*
X175234087Y-105386457D01*
X175006000Y-105366502D01*
X174777913Y-105386457D01*
X174772600Y-105387881D01*
X174772598Y-105387881D01*
X174562067Y-105444293D01*
X174562065Y-105444294D01*
X174556757Y-105445716D01*
X174551776Y-105448039D01*
X174551775Y-105448039D01*
X174354238Y-105540151D01*
X174354233Y-105540154D01*
X174349251Y-105542477D01*
X174244389Y-105615902D01*
X174166211Y-105670643D01*
X174166208Y-105670645D01*
X174161700Y-105673802D01*
X173999802Y-105835700D01*
X173868477Y-106023251D01*
X173866154Y-106028233D01*
X173866151Y-106028238D01*
X173850195Y-106062457D01*
X173803278Y-106115742D01*
X173735001Y-106135203D01*
X173667041Y-106114661D01*
X173621805Y-106062457D01*
X173605849Y-106028238D01*
X173605846Y-106028233D01*
X173603523Y-106023251D01*
X173472198Y-105835700D01*
X173310300Y-105673802D01*
X173305792Y-105670645D01*
X173305789Y-105670643D01*
X173227611Y-105615902D01*
X173122749Y-105542477D01*
X173117767Y-105540154D01*
X173117762Y-105540151D01*
X172920225Y-105448039D01*
X172920224Y-105448039D01*
X172915243Y-105445716D01*
X172909935Y-105444294D01*
X172909933Y-105444293D01*
X172699402Y-105387881D01*
X172699400Y-105387881D01*
X172694087Y-105386457D01*
X172466000Y-105366502D01*
X172237913Y-105386457D01*
X172232600Y-105387881D01*
X172232598Y-105387881D01*
X172022067Y-105444293D01*
X172022065Y-105444294D01*
X172016757Y-105445716D01*
X172011776Y-105448039D01*
X172011775Y-105448039D01*
X171814238Y-105540151D01*
X171814233Y-105540154D01*
X171809251Y-105542477D01*
X171704389Y-105615902D01*
X171626211Y-105670643D01*
X171626208Y-105670645D01*
X171621700Y-105673802D01*
X171459802Y-105835700D01*
X171328477Y-106023251D01*
X171326154Y-106028233D01*
X171326151Y-106028238D01*
X171310195Y-106062457D01*
X171263278Y-106115742D01*
X171195001Y-106135203D01*
X171127041Y-106114661D01*
X171081805Y-106062457D01*
X171065849Y-106028238D01*
X171065846Y-106028233D01*
X171063523Y-106023251D01*
X170932198Y-105835700D01*
X170770300Y-105673802D01*
X170765792Y-105670645D01*
X170765789Y-105670643D01*
X170687611Y-105615902D01*
X170582749Y-105542477D01*
X170577767Y-105540154D01*
X170577762Y-105540151D01*
X170380225Y-105448039D01*
X170380224Y-105448039D01*
X170375243Y-105445716D01*
X170369935Y-105444294D01*
X170369933Y-105444293D01*
X170159402Y-105387881D01*
X170159400Y-105387881D01*
X170154087Y-105386457D01*
X169926000Y-105366502D01*
X169697913Y-105386457D01*
X169692600Y-105387881D01*
X169692598Y-105387881D01*
X169482067Y-105444293D01*
X169482065Y-105444294D01*
X169476757Y-105445716D01*
X169471776Y-105448039D01*
X169471775Y-105448039D01*
X169274238Y-105540151D01*
X169274233Y-105540154D01*
X169269251Y-105542477D01*
X169164389Y-105615902D01*
X169086211Y-105670643D01*
X169086208Y-105670645D01*
X169081700Y-105673802D01*
X168919802Y-105835700D01*
X168788477Y-106023251D01*
X168786154Y-106028233D01*
X168786151Y-106028238D01*
X168770195Y-106062457D01*
X168723278Y-106115742D01*
X168655001Y-106135203D01*
X168587041Y-106114661D01*
X168541805Y-106062457D01*
X168525849Y-106028238D01*
X168525846Y-106028233D01*
X168523523Y-106023251D01*
X168392198Y-105835700D01*
X168230300Y-105673802D01*
X168225792Y-105670645D01*
X168225789Y-105670643D01*
X168147611Y-105615902D01*
X168042749Y-105542477D01*
X168037767Y-105540154D01*
X168037762Y-105540151D01*
X167840225Y-105448039D01*
X167840224Y-105448039D01*
X167835243Y-105445716D01*
X167829935Y-105444294D01*
X167829933Y-105444293D01*
X167619402Y-105387881D01*
X167619400Y-105387881D01*
X167614087Y-105386457D01*
X167386000Y-105366502D01*
X167157913Y-105386457D01*
X167152600Y-105387881D01*
X167152598Y-105387881D01*
X166942067Y-105444293D01*
X166942065Y-105444294D01*
X166936757Y-105445716D01*
X166931776Y-105448039D01*
X166931775Y-105448039D01*
X166734238Y-105540151D01*
X166734233Y-105540154D01*
X166729251Y-105542477D01*
X166624389Y-105615902D01*
X166546211Y-105670643D01*
X166546208Y-105670645D01*
X166541700Y-105673802D01*
X166379802Y-105835700D01*
X166248477Y-106023251D01*
X166246154Y-106028233D01*
X166246151Y-106028238D01*
X166230195Y-106062457D01*
X166183278Y-106115742D01*
X166115001Y-106135203D01*
X166047041Y-106114661D01*
X166001805Y-106062457D01*
X165985849Y-106028238D01*
X165985846Y-106028233D01*
X165983523Y-106023251D01*
X165852198Y-105835700D01*
X165690300Y-105673802D01*
X165685792Y-105670645D01*
X165685789Y-105670643D01*
X165607611Y-105615902D01*
X165502749Y-105542477D01*
X165497767Y-105540154D01*
X165497762Y-105540151D01*
X165300225Y-105448039D01*
X165300224Y-105448039D01*
X165295243Y-105445716D01*
X165289935Y-105444294D01*
X165289933Y-105444293D01*
X165079402Y-105387881D01*
X165079400Y-105387881D01*
X165074087Y-105386457D01*
X164846000Y-105366502D01*
X164617913Y-105386457D01*
X164612600Y-105387881D01*
X164612598Y-105387881D01*
X164402067Y-105444293D01*
X164402065Y-105444294D01*
X164396757Y-105445716D01*
X164391776Y-105448039D01*
X164391775Y-105448039D01*
X164194238Y-105540151D01*
X164194233Y-105540154D01*
X164189251Y-105542477D01*
X164084389Y-105615902D01*
X164006211Y-105670643D01*
X164006208Y-105670645D01*
X164001700Y-105673802D01*
X163839802Y-105835700D01*
X163708477Y-106023251D01*
X163706154Y-106028233D01*
X163706151Y-106028238D01*
X163690195Y-106062457D01*
X163643278Y-106115742D01*
X163575001Y-106135203D01*
X163507041Y-106114661D01*
X163461805Y-106062457D01*
X163445849Y-106028238D01*
X163445846Y-106028233D01*
X163443523Y-106023251D01*
X163312198Y-105835700D01*
X163150300Y-105673802D01*
X163145792Y-105670645D01*
X163145789Y-105670643D01*
X163067611Y-105615902D01*
X162962749Y-105542477D01*
X162957767Y-105540154D01*
X162957762Y-105540151D01*
X162760225Y-105448039D01*
X162760224Y-105448039D01*
X162755243Y-105445716D01*
X162749935Y-105444294D01*
X162749933Y-105444293D01*
X162539402Y-105387881D01*
X162539400Y-105387881D01*
X162534087Y-105386457D01*
X162306000Y-105366502D01*
X162077913Y-105386457D01*
X162072600Y-105387881D01*
X162072598Y-105387881D01*
X161862067Y-105444293D01*
X161862065Y-105444294D01*
X161856757Y-105445716D01*
X161851776Y-105448039D01*
X161851775Y-105448039D01*
X161654238Y-105540151D01*
X161654233Y-105540154D01*
X161649251Y-105542477D01*
X161544389Y-105615902D01*
X161466211Y-105670643D01*
X161466208Y-105670645D01*
X161461700Y-105673802D01*
X161299802Y-105835700D01*
X161168477Y-106023251D01*
X161166154Y-106028233D01*
X161166151Y-106028238D01*
X161125852Y-106114661D01*
X161071716Y-106230757D01*
X161070294Y-106236065D01*
X161070293Y-106236067D01*
X161020972Y-106420135D01*
X161012457Y-106451913D01*
X160992502Y-106680000D01*
X158539498Y-106680000D01*
X158519543Y-106451913D01*
X158511028Y-106420135D01*
X158461707Y-106236067D01*
X158461706Y-106236065D01*
X158460284Y-106230757D01*
X158406148Y-106114661D01*
X158365849Y-106028238D01*
X158365846Y-106028233D01*
X158363523Y-106023251D01*
X158232198Y-105835700D01*
X158070300Y-105673802D01*
X158065792Y-105670645D01*
X158065789Y-105670643D01*
X157987611Y-105615902D01*
X157882749Y-105542477D01*
X157877767Y-105540154D01*
X157877762Y-105540151D01*
X157680225Y-105448039D01*
X157680224Y-105448039D01*
X157675243Y-105445716D01*
X157669935Y-105444294D01*
X157669933Y-105444293D01*
X157459402Y-105387881D01*
X157459400Y-105387881D01*
X157454087Y-105386457D01*
X157226000Y-105366502D01*
X156997913Y-105386457D01*
X156992600Y-105387881D01*
X156992598Y-105387881D01*
X156782067Y-105444293D01*
X156782065Y-105444294D01*
X156776757Y-105445716D01*
X156771776Y-105448039D01*
X156771775Y-105448039D01*
X156574238Y-105540151D01*
X156574233Y-105540154D01*
X156569251Y-105542477D01*
X156464389Y-105615902D01*
X156386211Y-105670643D01*
X156386208Y-105670645D01*
X156381700Y-105673802D01*
X156219802Y-105835700D01*
X156088477Y-106023251D01*
X156086154Y-106028233D01*
X156086151Y-106028238D01*
X156069919Y-106063049D01*
X156023002Y-106116334D01*
X155954725Y-106135795D01*
X155886765Y-106115253D01*
X155841529Y-106063049D01*
X155825414Y-106028489D01*
X155819931Y-106018993D01*
X155694972Y-105840533D01*
X155687916Y-105832125D01*
X155533875Y-105678084D01*
X155525467Y-105671028D01*
X155347007Y-105546069D01*
X155337511Y-105540586D01*
X155140053Y-105448510D01*
X155129761Y-105444764D01*
X154957497Y-105398606D01*
X154943401Y-105398942D01*
X154940000Y-105406884D01*
X154940000Y-106808000D01*
X154919998Y-106876121D01*
X154866342Y-106922614D01*
X154814000Y-106934000D01*
X152018000Y-106934000D01*
X151949879Y-106913998D01*
X151903386Y-106860342D01*
X151892000Y-106808000D01*
X151892000Y-106407885D01*
X152400000Y-106407885D01*
X152404475Y-106423124D01*
X152405865Y-106424329D01*
X152413548Y-106426000D01*
X154413885Y-106426000D01*
X154429124Y-106421525D01*
X154430329Y-106420135D01*
X154432000Y-106412452D01*
X154432000Y-105412033D01*
X154428027Y-105398502D01*
X154419478Y-105397273D01*
X154242239Y-105444764D01*
X154231947Y-105448510D01*
X154034489Y-105540586D01*
X154024993Y-105546069D01*
X153846533Y-105671028D01*
X153838125Y-105678084D01*
X153684084Y-105832125D01*
X153677028Y-105840533D01*
X153552069Y-106018993D01*
X153546586Y-106028489D01*
X153530195Y-106063641D01*
X153483278Y-106116926D01*
X153415001Y-106136387D01*
X153347041Y-106115845D01*
X153301805Y-106063641D01*
X153285414Y-106028489D01*
X153279931Y-106018993D01*
X153154972Y-105840533D01*
X153147916Y-105832125D01*
X152993875Y-105678084D01*
X152985467Y-105671028D01*
X152807007Y-105546069D01*
X152797511Y-105540586D01*
X152600053Y-105448510D01*
X152589761Y-105444764D01*
X152417497Y-105398606D01*
X152403401Y-105398942D01*
X152400000Y-105406884D01*
X152400000Y-106407885D01*
X151892000Y-106407885D01*
X151892000Y-105412033D01*
X151888027Y-105398502D01*
X151879478Y-105397273D01*
X151702239Y-105444764D01*
X151691947Y-105448510D01*
X151494489Y-105540586D01*
X151484993Y-105546069D01*
X151306533Y-105671028D01*
X151298125Y-105678084D01*
X151144084Y-105832125D01*
X151137028Y-105840533D01*
X151012069Y-106018993D01*
X151006586Y-106028489D01*
X150990471Y-106063049D01*
X150943554Y-106116334D01*
X150875277Y-106135795D01*
X150807317Y-106115253D01*
X150762081Y-106063049D01*
X150745849Y-106028238D01*
X150745846Y-106028233D01*
X150743523Y-106023251D01*
X150612198Y-105835700D01*
X150450300Y-105673802D01*
X150445792Y-105670645D01*
X150445789Y-105670643D01*
X150367611Y-105615902D01*
X150262749Y-105542477D01*
X150257767Y-105540154D01*
X150257762Y-105540151D01*
X150060225Y-105448039D01*
X150060224Y-105448039D01*
X150055243Y-105445716D01*
X150049935Y-105444294D01*
X150049933Y-105444293D01*
X149839402Y-105387881D01*
X149839400Y-105387881D01*
X149834087Y-105386457D01*
X149606000Y-105366502D01*
X149377913Y-105386457D01*
X149372600Y-105387881D01*
X149372598Y-105387881D01*
X149162067Y-105444293D01*
X149162065Y-105444294D01*
X149156757Y-105445716D01*
X149151776Y-105448039D01*
X149151775Y-105448039D01*
X148954238Y-105540151D01*
X148954233Y-105540154D01*
X148949251Y-105542477D01*
X148844389Y-105615902D01*
X148766211Y-105670643D01*
X148766208Y-105670645D01*
X148761700Y-105673802D01*
X148599802Y-105835700D01*
X148468477Y-106023251D01*
X148466154Y-106028233D01*
X148466151Y-106028238D01*
X148450195Y-106062457D01*
X148403278Y-106115742D01*
X148335001Y-106135203D01*
X148267041Y-106114661D01*
X148221805Y-106062457D01*
X148205849Y-106028238D01*
X148205846Y-106028233D01*
X148203523Y-106023251D01*
X148072198Y-105835700D01*
X147910300Y-105673802D01*
X147905792Y-105670645D01*
X147905789Y-105670643D01*
X147827611Y-105615902D01*
X147722749Y-105542477D01*
X147717767Y-105540154D01*
X147717762Y-105540151D01*
X147520225Y-105448039D01*
X147520224Y-105448039D01*
X147515243Y-105445716D01*
X147509935Y-105444294D01*
X147509933Y-105444293D01*
X147299402Y-105387881D01*
X147299400Y-105387881D01*
X147294087Y-105386457D01*
X147066000Y-105366502D01*
X146837913Y-105386457D01*
X146832600Y-105387881D01*
X146832598Y-105387881D01*
X146622067Y-105444293D01*
X146622065Y-105444294D01*
X146616757Y-105445716D01*
X146611776Y-105448039D01*
X146611775Y-105448039D01*
X146414238Y-105540151D01*
X146414233Y-105540154D01*
X146409251Y-105542477D01*
X146304389Y-105615902D01*
X146226211Y-105670643D01*
X146226208Y-105670645D01*
X146221700Y-105673802D01*
X146059802Y-105835700D01*
X145928477Y-106023251D01*
X145926154Y-106028233D01*
X145926151Y-106028238D01*
X145910195Y-106062457D01*
X145863278Y-106115742D01*
X145795001Y-106135203D01*
X145727041Y-106114661D01*
X145681805Y-106062457D01*
X145665849Y-106028238D01*
X145665846Y-106028233D01*
X145663523Y-106023251D01*
X145532198Y-105835700D01*
X145370300Y-105673802D01*
X145365792Y-105670645D01*
X145365789Y-105670643D01*
X145287611Y-105615902D01*
X145182749Y-105542477D01*
X145177767Y-105540154D01*
X145177762Y-105540151D01*
X144980225Y-105448039D01*
X144980224Y-105448039D01*
X144975243Y-105445716D01*
X144969935Y-105444294D01*
X144969933Y-105444293D01*
X144759402Y-105387881D01*
X144759400Y-105387881D01*
X144754087Y-105386457D01*
X144526000Y-105366502D01*
X144297913Y-105386457D01*
X144292600Y-105387881D01*
X144292598Y-105387881D01*
X144082067Y-105444293D01*
X144082065Y-105444294D01*
X144076757Y-105445716D01*
X144071776Y-105448039D01*
X144071775Y-105448039D01*
X143874238Y-105540151D01*
X143874233Y-105540154D01*
X143869251Y-105542477D01*
X143764389Y-105615902D01*
X143686211Y-105670643D01*
X143686208Y-105670645D01*
X143681700Y-105673802D01*
X143519802Y-105835700D01*
X143388477Y-106023251D01*
X143386154Y-106028233D01*
X143386151Y-106028238D01*
X143370195Y-106062457D01*
X143323278Y-106115742D01*
X143255001Y-106135203D01*
X143187041Y-106114661D01*
X143141805Y-106062457D01*
X143125849Y-106028238D01*
X143125846Y-106028233D01*
X143123523Y-106023251D01*
X142992198Y-105835700D01*
X142830300Y-105673802D01*
X142825792Y-105670645D01*
X142825789Y-105670643D01*
X142747611Y-105615902D01*
X142642749Y-105542477D01*
X142637767Y-105540154D01*
X142637762Y-105540151D01*
X142440225Y-105448039D01*
X142440224Y-105448039D01*
X142435243Y-105445716D01*
X142429935Y-105444294D01*
X142429933Y-105444293D01*
X142219402Y-105387881D01*
X142219400Y-105387881D01*
X142214087Y-105386457D01*
X141986000Y-105366502D01*
X141757913Y-105386457D01*
X141752600Y-105387881D01*
X141752598Y-105387881D01*
X141542067Y-105444293D01*
X141542065Y-105444294D01*
X141536757Y-105445716D01*
X141531776Y-105448039D01*
X141531775Y-105448039D01*
X141334238Y-105540151D01*
X141334233Y-105540154D01*
X141329251Y-105542477D01*
X141224389Y-105615902D01*
X141146211Y-105670643D01*
X141146208Y-105670645D01*
X141141700Y-105673802D01*
X140979802Y-105835700D01*
X140976643Y-105840211D01*
X140973108Y-105844424D01*
X140971974Y-105843473D01*
X140921929Y-105883471D01*
X140851310Y-105890776D01*
X140787951Y-105858742D01*
X140751970Y-105797538D01*
X140748918Y-105780483D01*
X140747745Y-105769684D01*
X140696615Y-105633295D01*
X140609261Y-105516739D01*
X140492705Y-105429385D01*
X140356316Y-105378255D01*
X140294134Y-105371500D01*
X138597866Y-105371500D01*
X138535684Y-105378255D01*
X138399295Y-105429385D01*
X138282739Y-105516739D01*
X138195385Y-105633295D01*
X138144255Y-105769684D01*
X138137500Y-105831866D01*
X138137500Y-107528134D01*
X138144255Y-107590316D01*
X138195385Y-107726705D01*
X138282739Y-107843261D01*
X138327628Y-107876904D01*
X138370143Y-107933761D01*
X138375169Y-108004580D01*
X138341109Y-108066873D01*
X138278779Y-108100864D01*
X138251237Y-108103726D01*
X136173758Y-108090103D01*
X127344472Y-108032206D01*
X127276486Y-108011759D01*
X127230346Y-107957800D01*
X127220703Y-107887461D01*
X127237867Y-107840375D01*
X127346686Y-107662799D01*
X127348927Y-107659142D01*
X127350816Y-107654840D01*
X127462757Y-107399830D01*
X127464483Y-107395898D01*
X127465958Y-107390722D01*
X127508080Y-107242850D01*
X127543244Y-107119406D01*
X127583751Y-106834784D01*
X127583845Y-106816951D01*
X127585235Y-106551583D01*
X127585235Y-106551576D01*
X127585257Y-106547297D01*
X127572700Y-106451913D01*
X127548292Y-106266522D01*
X127547732Y-106262266D01*
X127471871Y-105984964D01*
X127428580Y-105883471D01*
X127360763Y-105724476D01*
X127360761Y-105724472D01*
X127359077Y-105720524D01*
X127254668Y-105546069D01*
X127213643Y-105477521D01*
X127213640Y-105477517D01*
X127211439Y-105473839D01*
X127031687Y-105249472D01*
X126823149Y-105051577D01*
X126589683Y-104883814D01*
X126567843Y-104872250D01*
X126544654Y-104859972D01*
X126335608Y-104749288D01*
X126065627Y-104650489D01*
X125784736Y-104589245D01*
X125753685Y-104586801D01*
X125561718Y-104571693D01*
X125561709Y-104571693D01*
X125559261Y-104571500D01*
X125403729Y-104571500D01*
X125401593Y-104571646D01*
X125401582Y-104571646D01*
X125193452Y-104585835D01*
X125193446Y-104585836D01*
X125189175Y-104586127D01*
X125184980Y-104586996D01*
X125184978Y-104586996D01*
X125048417Y-104615276D01*
X124907658Y-104644426D01*
X124636657Y-104740393D01*
X124381188Y-104872250D01*
X124377687Y-104874711D01*
X124377683Y-104874713D01*
X124367594Y-104881804D01*
X124145977Y-105037559D01*
X123935378Y-105233260D01*
X123753287Y-105455732D01*
X123603073Y-105700858D01*
X123601347Y-105704791D01*
X123601346Y-105704792D01*
X123519705Y-105890776D01*
X123487517Y-105964102D01*
X123486342Y-105968229D01*
X123486341Y-105968230D01*
X123448136Y-106102348D01*
X123408756Y-106240594D01*
X123368249Y-106525216D01*
X123368227Y-106529505D01*
X123368226Y-106529512D01*
X123366765Y-106808417D01*
X123366743Y-106812703D01*
X123367302Y-106816947D01*
X123367302Y-106816951D01*
X123380000Y-106913402D01*
X123404268Y-107097734D01*
X123480129Y-107375036D01*
X123481813Y-107378984D01*
X123566443Y-107577394D01*
X123592923Y-107639476D01*
X123645129Y-107726705D01*
X123699100Y-107816885D01*
X123716920Y-107885609D01*
X123694756Y-107953057D01*
X123639645Y-107997815D01*
X123590158Y-108007588D01*
X114861602Y-107950351D01*
X114793616Y-107929904D01*
X114771080Y-107911137D01*
X114748588Y-107887461D01*
X112429650Y-105446473D01*
X112397233Y-105383311D01*
X112395000Y-105359692D01*
X112395000Y-97790000D01*
X156566496Y-97790000D01*
X156586458Y-97979928D01*
X156645473Y-98161556D01*
X156740960Y-98326944D01*
X156868747Y-98468866D01*
X157023248Y-98581118D01*
X157029276Y-98583802D01*
X157029278Y-98583803D01*
X157191681Y-98656109D01*
X157197712Y-98658794D01*
X157291113Y-98678647D01*
X157378056Y-98697128D01*
X157378061Y-98697128D01*
X157384513Y-98698500D01*
X157575487Y-98698500D01*
X157581939Y-98697128D01*
X157581944Y-98697128D01*
X157668887Y-98678647D01*
X157762288Y-98658794D01*
X157768319Y-98656109D01*
X157930722Y-98583803D01*
X157930724Y-98583802D01*
X157936752Y-98581118D01*
X158091253Y-98468866D01*
X158219040Y-98326944D01*
X158314527Y-98161556D01*
X158373542Y-97979928D01*
X158390907Y-97814706D01*
X158417920Y-97749050D01*
X158427122Y-97738782D01*
X159508898Y-96657006D01*
X159571210Y-96622980D01*
X159597993Y-96620101D01*
X163854545Y-96620101D01*
X163922666Y-96640103D01*
X163961978Y-96680266D01*
X164031691Y-96794028D01*
X164178378Y-96963369D01*
X164350754Y-97106478D01*
X164355206Y-97109080D01*
X164355211Y-97109083D01*
X164539730Y-97216907D01*
X164544188Y-97219512D01*
X164753487Y-97299435D01*
X164758553Y-97300466D01*
X164758554Y-97300466D01*
X164810822Y-97311100D01*
X164973028Y-97344101D01*
X165099003Y-97348720D01*
X165191753Y-97352122D01*
X165191757Y-97352122D01*
X165196917Y-97352311D01*
X165202037Y-97351655D01*
X165202039Y-97351655D01*
X165414012Y-97324500D01*
X165414013Y-97324500D01*
X165419140Y-97323843D01*
X165497060Y-97300466D01*
X165628776Y-97260949D01*
X165633729Y-97259463D01*
X165834923Y-97160900D01*
X165915846Y-97103178D01*
X166013104Y-97033805D01*
X166013109Y-97033801D01*
X166017316Y-97030800D01*
X166176012Y-96872657D01*
X166232513Y-96794028D01*
X166303730Y-96694918D01*
X166306748Y-96690718D01*
X166323410Y-96657006D01*
X166403719Y-96494511D01*
X166406013Y-96489870D01*
X166436240Y-96390383D01*
X166469638Y-96280459D01*
X166469639Y-96280453D01*
X166471142Y-96275507D01*
X166500385Y-96053384D01*
X166502017Y-95986601D01*
X166499271Y-95953199D01*
X170768192Y-95953199D01*
X170768489Y-95958351D01*
X170768489Y-95958355D01*
X170773969Y-96053384D01*
X170781089Y-96176867D01*
X170782226Y-96181913D01*
X170782227Y-96181919D01*
X170803318Y-96275507D01*
X170830343Y-96395425D01*
X170832285Y-96400207D01*
X170832286Y-96400211D01*
X170868693Y-96489870D01*
X170914632Y-96603003D01*
X171031692Y-96794028D01*
X171178379Y-96963369D01*
X171350755Y-97106478D01*
X171355207Y-97109080D01*
X171355212Y-97109083D01*
X171539731Y-97216907D01*
X171544189Y-97219512D01*
X171753488Y-97299435D01*
X171758554Y-97300466D01*
X171758555Y-97300466D01*
X171810823Y-97311100D01*
X171973029Y-97344101D01*
X172099004Y-97348720D01*
X172191754Y-97352122D01*
X172191758Y-97352122D01*
X172196918Y-97352311D01*
X172202038Y-97351655D01*
X172202040Y-97351655D01*
X172414013Y-97324500D01*
X172414014Y-97324500D01*
X172419141Y-97323843D01*
X172497061Y-97300466D01*
X172628777Y-97260949D01*
X172633730Y-97259463D01*
X172834924Y-97160900D01*
X172915847Y-97103178D01*
X173013105Y-97033805D01*
X173013110Y-97033801D01*
X173017317Y-97030800D01*
X173176013Y-96872657D01*
X173232514Y-96794028D01*
X173303731Y-96694918D01*
X173306749Y-96690718D01*
X173323411Y-96657006D01*
X173403720Y-96494511D01*
X173406014Y-96489870D01*
X173436241Y-96390383D01*
X173469639Y-96280459D01*
X173469640Y-96280453D01*
X173471143Y-96275507D01*
X173500386Y-96053384D01*
X173502018Y-95986601D01*
X173483661Y-95763315D01*
X173429081Y-95546026D01*
X173364880Y-95398373D01*
X173341806Y-95345306D01*
X173341804Y-95345303D01*
X173339746Y-95340569D01*
X173218054Y-95152461D01*
X173198089Y-95130519D01*
X173070751Y-94990577D01*
X173070749Y-94990575D01*
X173067273Y-94986755D01*
X173063222Y-94983556D01*
X173063218Y-94983552D01*
X172895506Y-94851101D01*
X172895501Y-94851098D01*
X172891452Y-94847900D01*
X172886936Y-94845407D01*
X172886933Y-94845405D01*
X172699838Y-94742123D01*
X172699834Y-94742121D01*
X172695314Y-94739626D01*
X172690445Y-94737902D01*
X172690441Y-94737900D01*
X172489000Y-94666566D01*
X172488996Y-94666565D01*
X172484125Y-94664840D01*
X172479032Y-94663933D01*
X172479029Y-94663932D01*
X172268647Y-94626457D01*
X172268641Y-94626456D01*
X172263558Y-94625551D01*
X172182125Y-94624556D01*
X172044706Y-94622877D01*
X172044704Y-94622877D01*
X172039536Y-94622814D01*
X171818075Y-94656703D01*
X171605122Y-94726306D01*
X171406397Y-94829756D01*
X171402264Y-94832859D01*
X171402261Y-94832861D01*
X171382231Y-94847900D01*
X171227236Y-94964274D01*
X171072452Y-95126246D01*
X170946200Y-95311325D01*
X170925496Y-95355928D01*
X170854048Y-95509847D01*
X170854046Y-95509852D01*
X170851871Y-95514538D01*
X170791999Y-95730429D01*
X170768192Y-95953199D01*
X166499271Y-95953199D01*
X166483660Y-95763315D01*
X166429080Y-95546026D01*
X166364879Y-95398373D01*
X166341805Y-95345306D01*
X166341803Y-95345303D01*
X166339745Y-95340569D01*
X166218053Y-95152461D01*
X166198088Y-95130519D01*
X166070750Y-94990577D01*
X166070748Y-94990575D01*
X166067272Y-94986755D01*
X166063221Y-94983556D01*
X166063217Y-94983552D01*
X165895505Y-94851101D01*
X165895500Y-94851098D01*
X165891451Y-94847900D01*
X165886935Y-94845407D01*
X165886932Y-94845405D01*
X165699837Y-94742123D01*
X165699833Y-94742121D01*
X165695313Y-94739626D01*
X165690444Y-94737902D01*
X165690440Y-94737900D01*
X165488999Y-94666566D01*
X165488995Y-94666565D01*
X165484124Y-94664840D01*
X165479031Y-94663933D01*
X165479028Y-94663932D01*
X165268646Y-94626457D01*
X165268640Y-94626456D01*
X165263557Y-94625551D01*
X165182124Y-94624556D01*
X165044705Y-94622877D01*
X165044703Y-94622877D01*
X165039535Y-94622814D01*
X164818074Y-94656703D01*
X164605121Y-94726306D01*
X164406396Y-94829756D01*
X164402263Y-94832859D01*
X164402260Y-94832861D01*
X164382230Y-94847900D01*
X164227235Y-94964274D01*
X164072451Y-95126246D01*
X164069537Y-95130518D01*
X164069536Y-95130519D01*
X163955217Y-95298105D01*
X163900306Y-95343108D01*
X163851129Y-95353101D01*
X159362162Y-95353101D01*
X159350978Y-95352574D01*
X159343490Y-95350900D01*
X159335567Y-95351149D01*
X159275432Y-95353039D01*
X159271474Y-95353101D01*
X159243543Y-95353101D01*
X159239628Y-95353596D01*
X159239624Y-95353596D01*
X159239566Y-95353604D01*
X159239537Y-95353607D01*
X159227695Y-95354540D01*
X159183509Y-95355928D01*
X159166143Y-95360973D01*
X159164057Y-95361579D01*
X159144705Y-95365587D01*
X159137634Y-95366481D01*
X159124602Y-95368127D01*
X159117233Y-95371044D01*
X159117231Y-95371045D01*
X159083496Y-95384401D01*
X159072268Y-95388246D01*
X159029806Y-95400583D01*
X159022984Y-95404617D01*
X159022978Y-95404620D01*
X159012367Y-95410895D01*
X158994617Y-95419591D01*
X158983155Y-95424129D01*
X158983150Y-95424132D01*
X158975782Y-95427049D01*
X158969367Y-95431710D01*
X158940024Y-95453028D01*
X158930106Y-95459544D01*
X158911418Y-95470596D01*
X158892036Y-95482059D01*
X158877712Y-95496383D01*
X158862680Y-95509222D01*
X158846292Y-95521129D01*
X158821549Y-95551038D01*
X158818111Y-95555194D01*
X158810121Y-95563974D01*
X157529500Y-96844595D01*
X157467188Y-96878621D01*
X157440405Y-96881500D01*
X157384513Y-96881500D01*
X157378061Y-96882872D01*
X157378056Y-96882872D01*
X157291112Y-96901353D01*
X157197712Y-96921206D01*
X157191682Y-96923891D01*
X157191681Y-96923891D01*
X157029278Y-96996197D01*
X157029276Y-96996198D01*
X157023248Y-96998882D01*
X156868747Y-97111134D01*
X156864326Y-97116044D01*
X156864325Y-97116045D01*
X156769505Y-97221354D01*
X156740960Y-97253056D01*
X156645473Y-97418444D01*
X156586458Y-97600072D01*
X156566496Y-97790000D01*
X112395000Y-97790000D01*
X112395000Y-92034340D01*
X164371991Y-92034340D01*
X164377272Y-92041395D01*
X164539947Y-92136455D01*
X164549230Y-92140902D01*
X164748800Y-92217111D01*
X164758693Y-92219985D01*
X164968008Y-92262571D01*
X164978265Y-92263794D01*
X165191730Y-92271621D01*
X165202016Y-92271154D01*
X165413904Y-92244010D01*
X165423990Y-92241867D01*
X165628596Y-92180482D01*
X165638191Y-92176721D01*
X165830015Y-92082748D01*
X165838881Y-92077463D01*
X165886978Y-92043155D01*
X165893899Y-92034340D01*
X171371992Y-92034340D01*
X171377273Y-92041395D01*
X171539948Y-92136455D01*
X171549231Y-92140902D01*
X171748801Y-92217111D01*
X171758694Y-92219985D01*
X171968009Y-92262571D01*
X171978266Y-92263794D01*
X172191731Y-92271621D01*
X172202017Y-92271154D01*
X172413905Y-92244010D01*
X172423991Y-92241867D01*
X172628597Y-92180482D01*
X172638192Y-92176721D01*
X172830016Y-92082748D01*
X172838882Y-92077463D01*
X172886979Y-92043155D01*
X172895380Y-92032455D01*
X172888392Y-92019302D01*
X172147713Y-91278623D01*
X172133769Y-91271009D01*
X172131936Y-91271140D01*
X172125321Y-91275391D01*
X171378752Y-92021960D01*
X171371992Y-92034340D01*
X165893899Y-92034340D01*
X165895379Y-92032455D01*
X165888391Y-92019302D01*
X165147712Y-91278623D01*
X165133768Y-91271009D01*
X165131935Y-91271140D01*
X165125320Y-91275391D01*
X164378751Y-92021960D01*
X164371991Y-92034340D01*
X112395000Y-92034340D01*
X112395000Y-90878368D01*
X163768989Y-90878368D01*
X163781286Y-91091628D01*
X163782722Y-91101849D01*
X163829684Y-91310233D01*
X163832763Y-91320061D01*
X163913134Y-91517990D01*
X163917777Y-91527181D01*
X163998489Y-91658892D01*
X164008945Y-91668352D01*
X164017723Y-91664568D01*
X164762878Y-90919413D01*
X164769256Y-90907733D01*
X165499308Y-90907733D01*
X165499439Y-90909566D01*
X165503690Y-90916181D01*
X166248203Y-91660694D01*
X166260214Y-91667253D01*
X166271953Y-91658285D01*
X166303299Y-91614663D01*
X166308613Y-91605818D01*
X166403253Y-91414328D01*
X166407052Y-91404732D01*
X166469148Y-91200353D01*
X166471327Y-91190272D01*
X166499447Y-90976682D01*
X166499966Y-90970007D01*
X166501434Y-90909965D01*
X166501240Y-90903248D01*
X166499195Y-90878368D01*
X170768990Y-90878368D01*
X170781287Y-91091628D01*
X170782723Y-91101849D01*
X170829685Y-91310233D01*
X170832764Y-91320061D01*
X170913135Y-91517990D01*
X170917778Y-91527181D01*
X170998490Y-91658892D01*
X171008946Y-91668352D01*
X171017724Y-91664568D01*
X171762879Y-90919413D01*
X171769257Y-90907733D01*
X172499309Y-90907733D01*
X172499440Y-90909566D01*
X172503691Y-90916181D01*
X173248204Y-91660694D01*
X173260215Y-91667253D01*
X173271954Y-91658285D01*
X173303300Y-91614663D01*
X173308614Y-91605818D01*
X173403254Y-91414328D01*
X173407053Y-91404732D01*
X173469149Y-91200353D01*
X173471328Y-91190272D01*
X173499448Y-90976682D01*
X173499967Y-90970007D01*
X173501435Y-90909965D01*
X173501241Y-90903248D01*
X173483590Y-90688548D01*
X173481907Y-90678386D01*
X173429866Y-90471201D01*
X173426545Y-90461446D01*
X173341369Y-90265555D01*
X173336491Y-90256458D01*
X173270819Y-90154943D01*
X173260133Y-90145741D01*
X173250568Y-90150144D01*
X172506923Y-90893789D01*
X172499309Y-90907733D01*
X171769257Y-90907733D01*
X171770493Y-90905469D01*
X171770362Y-90903636D01*
X171766111Y-90897021D01*
X171021909Y-90152819D01*
X171010373Y-90146519D01*
X170998090Y-90156142D01*
X170949551Y-90227298D01*
X170944458Y-90236262D01*
X170854514Y-90430031D01*
X170850962Y-90439684D01*
X170793871Y-90645549D01*
X170791943Y-90655656D01*
X170769241Y-90868080D01*
X170768990Y-90878368D01*
X166499195Y-90878368D01*
X166483589Y-90688548D01*
X166481906Y-90678386D01*
X166429865Y-90471201D01*
X166426544Y-90461446D01*
X166341368Y-90265555D01*
X166336490Y-90256458D01*
X166270818Y-90154943D01*
X166260132Y-90145741D01*
X166250567Y-90150144D01*
X165506922Y-90893789D01*
X165499308Y-90907733D01*
X164769256Y-90907733D01*
X164770492Y-90905469D01*
X164770361Y-90903636D01*
X164766110Y-90897021D01*
X164021908Y-90152819D01*
X164010372Y-90146519D01*
X163998089Y-90156142D01*
X163949550Y-90227298D01*
X163944457Y-90236262D01*
X163854513Y-90430031D01*
X163850961Y-90439684D01*
X163793870Y-90645549D01*
X163791942Y-90655656D01*
X163769240Y-90868080D01*
X163768989Y-90878368D01*
X112395000Y-90878368D01*
X112395000Y-89780207D01*
X164373302Y-89780207D01*
X164380048Y-89792539D01*
X165122088Y-90534579D01*
X165136032Y-90542193D01*
X165137865Y-90542062D01*
X165144480Y-90537811D01*
X165891101Y-89791190D01*
X165897099Y-89780207D01*
X171373303Y-89780207D01*
X171380049Y-89792539D01*
X172122089Y-90534579D01*
X172136033Y-90542193D01*
X172137866Y-90542062D01*
X172144481Y-90537811D01*
X172891102Y-89791190D01*
X172898122Y-89778335D01*
X172891212Y-89768852D01*
X172886646Y-89765818D01*
X172699642Y-89662586D01*
X172690230Y-89658356D01*
X172488872Y-89587051D01*
X172478901Y-89584417D01*
X172268599Y-89546956D01*
X172258347Y-89545987D01*
X172044741Y-89543377D01*
X172034457Y-89544097D01*
X171823304Y-89576408D01*
X171813276Y-89578797D01*
X171610234Y-89645161D01*
X171600725Y-89649158D01*
X171411253Y-89747791D01*
X171402532Y-89753283D01*
X171381756Y-89768882D01*
X171373303Y-89780207D01*
X165897099Y-89780207D01*
X165898121Y-89778335D01*
X165891211Y-89768852D01*
X165886645Y-89765818D01*
X165699641Y-89662586D01*
X165690229Y-89658356D01*
X165488871Y-89587051D01*
X165478900Y-89584417D01*
X165268598Y-89546956D01*
X165258346Y-89545987D01*
X165044740Y-89543377D01*
X165034456Y-89544097D01*
X164823303Y-89576408D01*
X164813275Y-89578797D01*
X164610233Y-89645161D01*
X164600724Y-89649158D01*
X164411252Y-89747791D01*
X164402531Y-89753283D01*
X164381755Y-89768882D01*
X164373302Y-89780207D01*
X112395000Y-89780207D01*
X112395000Y-84523199D01*
X163768191Y-84523199D01*
X163768488Y-84528351D01*
X163768488Y-84528355D01*
X163773968Y-84623384D01*
X163781088Y-84746867D01*
X163782225Y-84751913D01*
X163782226Y-84751919D01*
X163803317Y-84845507D01*
X163830342Y-84965425D01*
X163832284Y-84970207D01*
X163832285Y-84970211D01*
X163868692Y-85059870D01*
X163914631Y-85173003D01*
X164031691Y-85364028D01*
X164178378Y-85533369D01*
X164350754Y-85676478D01*
X164355206Y-85679080D01*
X164355211Y-85679083D01*
X164539730Y-85786907D01*
X164544188Y-85789512D01*
X164753487Y-85869435D01*
X164758553Y-85870466D01*
X164758554Y-85870466D01*
X164810822Y-85881100D01*
X164973028Y-85914101D01*
X165099003Y-85918720D01*
X165191753Y-85922122D01*
X165191757Y-85922122D01*
X165196917Y-85922311D01*
X165202037Y-85921655D01*
X165202039Y-85921655D01*
X165414012Y-85894500D01*
X165414013Y-85894500D01*
X165419140Y-85893843D01*
X165497060Y-85870466D01*
X165628776Y-85830949D01*
X165633729Y-85829463D01*
X165834923Y-85730900D01*
X165915846Y-85673178D01*
X166013104Y-85603805D01*
X166013109Y-85603801D01*
X166017316Y-85600800D01*
X166176012Y-85442657D01*
X166232513Y-85364028D01*
X166303730Y-85264918D01*
X166306748Y-85260718D01*
X166406013Y-85059870D01*
X166436240Y-84960383D01*
X166469638Y-84850459D01*
X166469639Y-84850453D01*
X166471142Y-84845507D01*
X166500385Y-84623384D01*
X166502017Y-84556601D01*
X166499271Y-84523199D01*
X170768192Y-84523199D01*
X170768489Y-84528351D01*
X170768489Y-84528355D01*
X170773969Y-84623384D01*
X170781089Y-84746867D01*
X170782226Y-84751913D01*
X170782227Y-84751919D01*
X170803318Y-84845507D01*
X170830343Y-84965425D01*
X170832285Y-84970207D01*
X170832286Y-84970211D01*
X170868693Y-85059870D01*
X170914632Y-85173003D01*
X171031692Y-85364028D01*
X171178379Y-85533369D01*
X171350755Y-85676478D01*
X171355207Y-85679080D01*
X171355212Y-85679083D01*
X171539731Y-85786907D01*
X171544189Y-85789512D01*
X171753488Y-85869435D01*
X171758554Y-85870466D01*
X171758555Y-85870466D01*
X171810823Y-85881100D01*
X171973029Y-85914101D01*
X172099004Y-85918720D01*
X172191754Y-85922122D01*
X172191758Y-85922122D01*
X172196918Y-85922311D01*
X172202038Y-85921655D01*
X172202040Y-85921655D01*
X172414013Y-85894500D01*
X172414014Y-85894500D01*
X172419141Y-85893843D01*
X172497061Y-85870466D01*
X172628777Y-85830949D01*
X172633730Y-85829463D01*
X172834924Y-85730900D01*
X172915847Y-85673178D01*
X173013105Y-85603805D01*
X173013110Y-85603801D01*
X173017317Y-85600800D01*
X173176013Y-85442657D01*
X173232514Y-85364028D01*
X173303731Y-85264918D01*
X173306749Y-85260718D01*
X173406014Y-85059870D01*
X173436241Y-84960383D01*
X173469639Y-84850459D01*
X173469640Y-84850453D01*
X173471143Y-84845507D01*
X173500386Y-84623384D01*
X173502018Y-84556601D01*
X173483661Y-84333315D01*
X173429081Y-84116026D01*
X173339746Y-83910569D01*
X173218054Y-83722461D01*
X173198089Y-83700519D01*
X173070751Y-83560577D01*
X173070749Y-83560575D01*
X173067273Y-83556755D01*
X173063222Y-83553556D01*
X173063218Y-83553552D01*
X172895506Y-83421101D01*
X172895501Y-83421098D01*
X172891452Y-83417900D01*
X172886936Y-83415407D01*
X172886933Y-83415405D01*
X172699838Y-83312123D01*
X172699834Y-83312121D01*
X172695314Y-83309626D01*
X172690445Y-83307902D01*
X172690441Y-83307900D01*
X172489000Y-83236566D01*
X172488996Y-83236565D01*
X172484125Y-83234840D01*
X172479032Y-83233933D01*
X172479029Y-83233932D01*
X172268647Y-83196457D01*
X172268641Y-83196456D01*
X172263558Y-83195551D01*
X172182125Y-83194556D01*
X172044706Y-83192877D01*
X172044704Y-83192877D01*
X172039536Y-83192814D01*
X171818075Y-83226703D01*
X171605122Y-83296306D01*
X171406397Y-83399756D01*
X171402264Y-83402859D01*
X171402261Y-83402861D01*
X171382231Y-83417900D01*
X171227236Y-83534274D01*
X171072452Y-83696246D01*
X170946200Y-83881325D01*
X170911189Y-83956750D01*
X170854048Y-84079847D01*
X170854046Y-84079852D01*
X170851871Y-84084538D01*
X170791999Y-84300429D01*
X170768192Y-84523199D01*
X166499271Y-84523199D01*
X166483660Y-84333315D01*
X166429080Y-84116026D01*
X166339745Y-83910569D01*
X166218053Y-83722461D01*
X166198088Y-83700519D01*
X166070750Y-83560577D01*
X166070748Y-83560575D01*
X166067272Y-83556755D01*
X166063221Y-83553556D01*
X166063217Y-83553552D01*
X165895505Y-83421101D01*
X165895500Y-83421098D01*
X165891451Y-83417900D01*
X165886935Y-83415407D01*
X165886932Y-83415405D01*
X165699837Y-83312123D01*
X165699833Y-83312121D01*
X165695313Y-83309626D01*
X165690444Y-83307902D01*
X165690440Y-83307900D01*
X165488999Y-83236566D01*
X165488995Y-83236565D01*
X165484124Y-83234840D01*
X165479031Y-83233933D01*
X165479028Y-83233932D01*
X165268646Y-83196457D01*
X165268640Y-83196456D01*
X165263557Y-83195551D01*
X165182124Y-83194556D01*
X165044705Y-83192877D01*
X165044703Y-83192877D01*
X165039535Y-83192814D01*
X164818074Y-83226703D01*
X164605121Y-83296306D01*
X164406396Y-83399756D01*
X164402263Y-83402859D01*
X164402260Y-83402861D01*
X164382230Y-83417900D01*
X164227235Y-83534274D01*
X164072451Y-83696246D01*
X163946199Y-83881325D01*
X163911188Y-83956750D01*
X163854047Y-84079847D01*
X163854045Y-84079852D01*
X163851870Y-84084538D01*
X163791998Y-84300429D01*
X163768191Y-84523199D01*
X112395000Y-84523199D01*
X112395000Y-80604340D01*
X164371991Y-80604340D01*
X164377272Y-80611395D01*
X164539947Y-80706455D01*
X164549230Y-80710902D01*
X164748800Y-80787111D01*
X164758693Y-80789985D01*
X164968008Y-80832571D01*
X164978265Y-80833794D01*
X165191730Y-80841621D01*
X165202016Y-80841154D01*
X165413904Y-80814010D01*
X165423990Y-80811867D01*
X165628596Y-80750482D01*
X165638191Y-80746721D01*
X165830015Y-80652748D01*
X165838881Y-80647463D01*
X165886978Y-80613155D01*
X165893899Y-80604340D01*
X171371992Y-80604340D01*
X171377273Y-80611395D01*
X171539948Y-80706455D01*
X171549231Y-80710902D01*
X171748801Y-80787111D01*
X171758694Y-80789985D01*
X171968009Y-80832571D01*
X171978266Y-80833794D01*
X172191731Y-80841621D01*
X172202017Y-80841154D01*
X172413905Y-80814010D01*
X172423991Y-80811867D01*
X172628597Y-80750482D01*
X172638192Y-80746721D01*
X172830016Y-80652748D01*
X172838882Y-80647463D01*
X172886979Y-80613155D01*
X172895380Y-80602455D01*
X172888392Y-80589302D01*
X172147713Y-79848623D01*
X172133769Y-79841009D01*
X172131936Y-79841140D01*
X172125321Y-79845391D01*
X171378752Y-80591960D01*
X171371992Y-80604340D01*
X165893899Y-80604340D01*
X165895379Y-80602455D01*
X165888391Y-80589302D01*
X165147712Y-79848623D01*
X165133768Y-79841009D01*
X165131935Y-79841140D01*
X165125320Y-79845391D01*
X164378751Y-80591960D01*
X164371991Y-80604340D01*
X112395000Y-80604340D01*
X112395000Y-76200000D01*
X124181496Y-76200000D01*
X124201458Y-76389928D01*
X124260473Y-76571556D01*
X124355960Y-76736944D01*
X124483747Y-76878866D01*
X124638248Y-76991118D01*
X124644276Y-76993802D01*
X124644278Y-76993803D01*
X124806681Y-77066109D01*
X124812712Y-77068794D01*
X124906113Y-77088647D01*
X124993056Y-77107128D01*
X124993061Y-77107128D01*
X124999513Y-77108500D01*
X125190487Y-77108500D01*
X125196939Y-77107128D01*
X125196944Y-77107128D01*
X125283887Y-77088647D01*
X125377288Y-77068794D01*
X125383319Y-77066109D01*
X125545722Y-76993803D01*
X125545724Y-76993802D01*
X125551752Y-76991118D01*
X125706253Y-76878866D01*
X125710668Y-76873963D01*
X125715580Y-76869540D01*
X125716705Y-76870789D01*
X125770014Y-76837949D01*
X125803200Y-76833500D01*
X140655406Y-76833500D01*
X140723527Y-76853502D01*
X140744501Y-76870405D01*
X143197878Y-79323783D01*
X143231904Y-79386095D01*
X143234093Y-79399706D01*
X143251458Y-79564928D01*
X143310473Y-79746556D01*
X143405960Y-79911944D01*
X143410378Y-79916851D01*
X143410379Y-79916852D01*
X143471135Y-79984328D01*
X143533747Y-80053866D01*
X143688248Y-80166118D01*
X143694276Y-80168802D01*
X143694278Y-80168803D01*
X143850489Y-80238352D01*
X143862712Y-80243794D01*
X143956113Y-80263647D01*
X144043056Y-80282128D01*
X144043061Y-80282128D01*
X144049513Y-80283500D01*
X144240487Y-80283500D01*
X144246939Y-80282128D01*
X144246944Y-80282128D01*
X144333887Y-80263647D01*
X144427288Y-80243794D01*
X144439511Y-80238352D01*
X144595722Y-80168803D01*
X144595724Y-80168802D01*
X144601752Y-80166118D01*
X144756253Y-80053866D01*
X144818865Y-79984328D01*
X144879621Y-79916852D01*
X144879622Y-79916851D01*
X144884040Y-79911944D01*
X144979527Y-79746556D01*
X145038542Y-79564928D01*
X145047707Y-79477733D01*
X145050793Y-79448368D01*
X163768989Y-79448368D01*
X163781286Y-79661628D01*
X163782722Y-79671849D01*
X163829684Y-79880233D01*
X163832763Y-79890061D01*
X163913134Y-80087990D01*
X163917777Y-80097181D01*
X163998489Y-80228892D01*
X164008945Y-80238352D01*
X164017723Y-80234568D01*
X164762878Y-79489413D01*
X164769256Y-79477733D01*
X165499308Y-79477733D01*
X165499439Y-79479566D01*
X165503690Y-79486181D01*
X166248203Y-80230694D01*
X166260214Y-80237253D01*
X166271953Y-80228285D01*
X166303299Y-80184663D01*
X166308613Y-80175818D01*
X166403253Y-79984328D01*
X166407052Y-79974732D01*
X166469148Y-79770353D01*
X166471327Y-79760272D01*
X166499447Y-79546682D01*
X166499966Y-79540007D01*
X166501434Y-79479965D01*
X166501240Y-79473248D01*
X166499195Y-79448368D01*
X170768990Y-79448368D01*
X170781287Y-79661628D01*
X170782723Y-79671849D01*
X170829685Y-79880233D01*
X170832764Y-79890061D01*
X170913135Y-80087990D01*
X170917778Y-80097181D01*
X170998490Y-80228892D01*
X171008946Y-80238352D01*
X171017724Y-80234568D01*
X171762879Y-79489413D01*
X171769257Y-79477733D01*
X172499309Y-79477733D01*
X172499440Y-79479566D01*
X172503691Y-79486181D01*
X173248204Y-80230694D01*
X173260215Y-80237253D01*
X173271954Y-80228285D01*
X173303300Y-80184663D01*
X173308614Y-80175818D01*
X173403254Y-79984328D01*
X173407053Y-79974732D01*
X173469149Y-79770353D01*
X173471328Y-79760272D01*
X173499448Y-79546682D01*
X173499967Y-79540007D01*
X173501435Y-79479965D01*
X173501241Y-79473248D01*
X173483590Y-79258548D01*
X173481907Y-79248386D01*
X173429866Y-79041201D01*
X173426545Y-79031446D01*
X173341369Y-78835555D01*
X173336491Y-78826458D01*
X173270819Y-78724943D01*
X173260133Y-78715741D01*
X173250568Y-78720144D01*
X172506923Y-79463789D01*
X172499309Y-79477733D01*
X171769257Y-79477733D01*
X171770493Y-79475469D01*
X171770362Y-79473636D01*
X171766111Y-79467021D01*
X171021909Y-78722819D01*
X171010373Y-78716519D01*
X170998090Y-78726142D01*
X170949551Y-78797298D01*
X170944458Y-78806262D01*
X170854514Y-79000031D01*
X170850962Y-79009684D01*
X170793871Y-79215549D01*
X170791943Y-79225656D01*
X170769241Y-79438080D01*
X170768990Y-79448368D01*
X166499195Y-79448368D01*
X166483589Y-79258548D01*
X166481906Y-79248386D01*
X166429865Y-79041201D01*
X166426544Y-79031446D01*
X166341368Y-78835555D01*
X166336490Y-78826458D01*
X166270818Y-78724943D01*
X166260132Y-78715741D01*
X166250567Y-78720144D01*
X165506922Y-79463789D01*
X165499308Y-79477733D01*
X164769256Y-79477733D01*
X164770492Y-79475469D01*
X164770361Y-79473636D01*
X164766110Y-79467021D01*
X164021908Y-78722819D01*
X164010372Y-78716519D01*
X163998089Y-78726142D01*
X163949550Y-78797298D01*
X163944457Y-78806262D01*
X163854513Y-79000031D01*
X163850961Y-79009684D01*
X163793870Y-79215549D01*
X163791942Y-79225656D01*
X163769240Y-79438080D01*
X163768989Y-79448368D01*
X145050793Y-79448368D01*
X145057814Y-79381565D01*
X145058504Y-79375000D01*
X145046265Y-79258548D01*
X145039232Y-79191635D01*
X145039232Y-79191633D01*
X145038542Y-79185072D01*
X144979527Y-79003444D01*
X144884040Y-78838056D01*
X144847342Y-78797298D01*
X144760675Y-78701045D01*
X144760674Y-78701044D01*
X144756253Y-78696134D01*
X144601752Y-78583882D01*
X144595724Y-78581198D01*
X144595722Y-78581197D01*
X144433319Y-78508891D01*
X144433318Y-78508891D01*
X144427288Y-78506206D01*
X144333888Y-78486353D01*
X144246944Y-78467872D01*
X144246939Y-78467872D01*
X144240487Y-78466500D01*
X144184594Y-78466500D01*
X144116473Y-78446498D01*
X144095499Y-78429595D01*
X144016111Y-78350207D01*
X164373302Y-78350207D01*
X164380048Y-78362539D01*
X165122088Y-79104579D01*
X165136032Y-79112193D01*
X165137865Y-79112062D01*
X165144480Y-79107811D01*
X165891101Y-78361190D01*
X165897099Y-78350207D01*
X171373303Y-78350207D01*
X171380049Y-78362539D01*
X172122089Y-79104579D01*
X172136033Y-79112193D01*
X172137866Y-79112062D01*
X172144481Y-79107811D01*
X172891102Y-78361190D01*
X172898122Y-78348335D01*
X172891212Y-78338852D01*
X172886646Y-78335818D01*
X172699642Y-78232586D01*
X172690230Y-78228356D01*
X172488872Y-78157051D01*
X172478901Y-78154417D01*
X172268599Y-78116956D01*
X172258347Y-78115987D01*
X172044741Y-78113377D01*
X172034457Y-78114097D01*
X171823304Y-78146408D01*
X171813276Y-78148797D01*
X171610234Y-78215161D01*
X171600725Y-78219158D01*
X171411253Y-78317791D01*
X171402532Y-78323283D01*
X171381756Y-78338882D01*
X171373303Y-78350207D01*
X165897099Y-78350207D01*
X165898121Y-78348335D01*
X165891211Y-78338852D01*
X165886645Y-78335818D01*
X165699641Y-78232586D01*
X165690229Y-78228356D01*
X165488871Y-78157051D01*
X165478900Y-78154417D01*
X165268598Y-78116956D01*
X165258346Y-78115987D01*
X165044740Y-78113377D01*
X165034456Y-78114097D01*
X164823303Y-78146408D01*
X164813275Y-78148797D01*
X164610233Y-78215161D01*
X164600724Y-78219158D01*
X164411252Y-78317791D01*
X164402531Y-78323283D01*
X164381755Y-78338882D01*
X164373302Y-78350207D01*
X144016111Y-78350207D01*
X141473652Y-75807747D01*
X141466112Y-75799461D01*
X141462000Y-75792982D01*
X141412348Y-75746356D01*
X141409507Y-75743602D01*
X141389770Y-75723865D01*
X141386573Y-75721385D01*
X141377551Y-75713680D01*
X141345321Y-75683414D01*
X141338375Y-75679595D01*
X141338372Y-75679593D01*
X141327566Y-75673652D01*
X141311047Y-75662801D01*
X141305048Y-75658148D01*
X141295041Y-75650386D01*
X141287772Y-75647241D01*
X141287768Y-75647238D01*
X141254463Y-75632826D01*
X141243813Y-75627609D01*
X141205060Y-75606305D01*
X141185437Y-75601267D01*
X141166734Y-75594863D01*
X141155420Y-75589967D01*
X141155419Y-75589967D01*
X141148145Y-75586819D01*
X141140322Y-75585580D01*
X141140312Y-75585577D01*
X141104476Y-75579901D01*
X141092856Y-75577495D01*
X141057711Y-75568472D01*
X141057710Y-75568472D01*
X141050030Y-75566500D01*
X141029776Y-75566500D01*
X141010065Y-75564949D01*
X140997886Y-75563020D01*
X140990057Y-75561780D01*
X140982165Y-75562526D01*
X140946039Y-75565941D01*
X140934181Y-75566500D01*
X125803200Y-75566500D01*
X125735079Y-75546498D01*
X125715853Y-75530157D01*
X125715580Y-75530460D01*
X125710668Y-75526037D01*
X125706253Y-75521134D01*
X125551752Y-75408882D01*
X125545724Y-75406198D01*
X125545722Y-75406197D01*
X125383319Y-75333891D01*
X125383318Y-75333891D01*
X125377288Y-75331206D01*
X125283887Y-75311353D01*
X125196944Y-75292872D01*
X125196939Y-75292872D01*
X125190487Y-75291500D01*
X124999513Y-75291500D01*
X124993061Y-75292872D01*
X124993056Y-75292872D01*
X124906113Y-75311353D01*
X124812712Y-75331206D01*
X124806682Y-75333891D01*
X124806681Y-75333891D01*
X124644278Y-75406197D01*
X124644276Y-75406198D01*
X124638248Y-75408882D01*
X124483747Y-75521134D01*
X124479326Y-75526044D01*
X124479325Y-75526045D01*
X124370203Y-75647238D01*
X124355960Y-75663056D01*
X124260473Y-75828444D01*
X124201458Y-76010072D01*
X124181496Y-76200000D01*
X112395000Y-76200000D01*
X112395000Y-59744000D01*
X112415002Y-59675879D01*
X112434103Y-59652759D01*
X112434941Y-59651961D01*
X115025503Y-57184759D01*
X115088627Y-57152263D01*
X115112400Y-57150000D01*
X124826322Y-57150000D01*
X124894443Y-57170002D01*
G37*
G04 #@! TD.AperFunction*
M02*
