M48
; DRILL file {KiCad 6.0.2+dfsg-1} date Tue 20 Feb 2024 11:24:18 AM MST
; FORMAT={-:-/ absolute / inch / decimal}
; #@! TF.CreationDate,2024-02-20T11:24:18-07:00
; #@! TF.GenerationSoftware,Kicad,Pcbnew,6.0.2+dfsg-1
; #@! TF.FileFunction,Plated,1,2,PTH
FMAT,2
INCH
; #@! TA.AperFunction,Plated,PTH,ViaDrill
T1C0.0157
; #@! TA.AperFunction,Plated,PTH,ComponentDrill
T2C0.0394
; #@! TA.AperFunction,Plated,PTH,ComponentDrill
T3C0.0472
%
G90
G05
T1
X4.485Y-3.65
X4.51Y-3.25
X4.68Y-3.31
X4.71Y-3.08
X4.925Y-3.0
X5.04Y-3.55
X5.06Y-3.19
X5.45Y-2.675
X5.675Y-3.125
X6.2Y-3.85
X6.37Y-3.13
T2
X5.1302Y-2.3
X5.2302Y-2.3
X5.3302Y-2.3
X5.4302Y-2.3
X5.49Y-4.2
X5.5302Y-2.3
X5.59Y-4.2
X5.6302Y-2.3
X5.69Y-4.2
X5.7302Y-2.3
X5.79Y-4.2
X5.8302Y-2.3
X5.89Y-4.2
X5.9302Y-2.3
X5.99Y-4.2
X6.0302Y-2.3
X6.09Y-4.2
X6.19Y-2.3
X6.19Y-4.2
X6.29Y-2.3
X6.39Y-2.3
X6.39Y-4.2
X6.49Y-2.3
X6.49Y-4.2
X6.59Y-2.3
X6.59Y-4.2
X6.69Y-2.3
X6.69Y-4.2
X6.79Y-2.3
X6.79Y-4.2
X6.89Y-2.3
X6.89Y-4.2
T3
X6.5014Y-3.129
X6.5014Y-3.329
X6.5014Y-3.579
X6.5014Y-3.779
X6.777Y-3.129
X6.777Y-3.329
X6.777Y-3.579
X6.777Y-3.779
T0
M30
